<svg version="1.1" id="Layer_1" xmlns="http://www.w3.org/2000/svg" x="0px" y="0px"
     width="100%" viewBox="0 0 400 400" enable-background="new 0 0 400 400" xml:space="preserve">
<path fill="#000000" opacity="1.000000" stroke="none"
      d="
M173.225464,193.174591
	C171.723419,191.592209 170.525864,190.224380 169.150085,188.653000
	C165.390762,191.822876 162.615845,195.349106 158.482849,197.352768
	C154.810928,199.132889 151.274658,200.200562 147.558701,198.220703
	C143.567749,196.094330 143.293564,192.034256 143.386520,188.182846
	C143.520203,182.644684 145.527252,177.442764 146.875473,172.127930
	C147.229538,170.732178 148.295166,169.117966 146.686752,168.006805
	C144.955353,166.810669 143.525604,168.299057 142.213287,169.193329
	C139.607788,170.968903 138.287796,173.664963 137.461761,176.610931
	C135.845047,182.376846 134.293823,188.161118 132.674942,193.926422
	C130.852814,200.415619 127.580185,202.794540 121.011871,201.039093
	C118.022110,200.240067 116.365875,201.087296 114.371178,202.584076
	C108.983871,206.626633 102.935028,208.555801 96.179642,208.367706
	C88.502586,208.153931 82.893745,203.291122 81.778648,195.738953
	C81.681496,195.080948 81.614555,194.412094 81.610054,193.747772
	C81.567810,187.506836 79.949539,183.256424 73.340569,179.892761
	C62.468868,174.359528 60.790806,158.450790 68.753304,148.974625
	C70.393776,147.022293 72.389992,145.607254 74.710289,147.670517
	C77.265373,149.942551 80.171295,152.056671 77.424995,156.440903
	C73.227303,163.142151 75.215958,169.618790 81.696922,171.977112
	C81.976837,172.078964 82.341690,171.947372 82.956291,171.904221
	C85.079559,168.648392 85.578690,164.603195 87.090622,160.967606
	C90.258308,153.350601 94.163666,146.282715 100.649727,140.911591
	C106.682747,135.915634 114.033501,134.519791 119.635071,137.813950
	C126.137032,141.637619 127.220901,148.076523 126.557182,154.775909
	C125.226349,168.209076 114.910118,179.073288 100.390450,182.872589
	C93.997223,184.545456 93.440605,185.345169 94.208969,191.753616
	C94.896782,197.490189 98.539360,200.030609 104.055458,198.130524
	C114.151558,194.652817 121.034149,187.537628 124.433235,177.598022
	C127.714096,168.004150 130.075043,158.096893 132.892166,148.342346
	C133.576233,145.973740 134.025681,143.265503 137.137955,142.780838
	C139.864304,142.356293 142.884369,140.655548 145.292053,142.798553
	C147.773743,145.007446 145.571777,147.780701 145.120667,150.277985
	C144.682968,152.701035 143.346313,154.936569 143.502014,157.590378
	C145.736237,158.746094 147.263931,156.883667 149.051224,156.378952
	C152.338959,155.450531 155.695465,154.787933 158.593765,157.058884
	C161.767044,159.545242 161.751099,163.163162 160.908432,166.690521
	C159.710907,171.703354 158.273834,176.659027 156.934143,181.637802
	C156.292267,184.023285 155.563263,186.404297 156.820450,189.174210
	C161.487854,187.665695 163.180908,183.557404 165.367279,180.005112
	C168.619247,174.721466 169.135696,168.307602 172.376526,162.968262
	C177.097946,155.189575 183.575516,150.816788 192.943008,151.560776
	C200.238129,152.140167 204.329941,157.597260 202.825851,164.682129
	C200.892838,173.787338 195.178711,178.670990 184.959488,180.097580
	C183.212326,180.341476 180.369247,179.405045 180.580444,182.653809
	C180.745163,185.187454 182.897034,186.191238 185.134003,186.569733
	C188.818893,187.193207 192.075806,185.770523 195.013336,183.815323
	C200.869293,179.917709 205.056229,174.775452 206.957077,167.786957
	C209.164322,159.672119 213.021927,152.612747 221.145966,148.855988
	C228.757156,145.336349 236.721146,146.879715 239.945602,152.475311
	C243.111862,157.969910 240.240341,167.620667 234.163589,171.990067
	C230.505219,174.620544 226.246048,175.335999 221.938507,175.954681
	C220.669159,176.136993 218.978073,175.966965 218.665726,177.640091
	C218.320557,179.489014 219.499924,180.824570 221.027863,181.674835
	C223.360992,182.973160 225.777664,182.759338 228.272400,181.961823
	C235.980469,179.497787 240.911438,173.987473 244.145660,166.971664
	C247.066986,160.634659 249.565125,154.084412 251.910324,147.507141
	C253.191437,143.914169 255.136841,142.361969 258.976624,142.994476
	C262.672760,143.603333 265.315704,144.954849 265.209625,149.272308
	C265.013336,157.263290 266.412750,165.063843 267.816681,172.914261
	C270.726105,173.013382 271.293030,170.760147 272.277496,169.217300
	C276.294098,162.922516 277.886841,155.683395 279.504730,148.578079
	C280.696442,143.344376 283.279266,141.367355 288.501831,141.565079
	C292.636963,141.721619 293.899933,143.192749 292.720398,147.152817
	C290.679230,154.005692 288.794373,160.905426 286.875977,167.794403
	C286.309082,169.830093 285.568604,171.904816 287.089600,174.149994
	C290.012024,173.379440 291.208832,171.038757 292.567291,168.774185
	C296.938049,161.487991 298.202332,153.132553 300.434998,145.165695
	C301.914185,139.887619 305.532379,138.961304 310.924194,139.187256
	C314.095551,139.320175 314.394714,141.546722 313.565887,144.272812
	C311.098572,152.388123 308.727722,160.533447 306.403229,168.690979
	C305.872986,170.551834 304.903290,172.413895 305.631836,174.870392
	C311.254059,171.530792 313.986206,166.234085 316.807312,161.014145
	C317.958923,158.883301 318.647339,155.782120 322.120422,157.611649
	C325.447693,159.364380 323.569122,161.940811 322.587921,164.089478
	C318.818024,172.345093 312.904053,178.787369 305.304871,183.654907
	C302.489075,185.458542 300.846954,187.635895 300.024445,191.039642
	C298.437897,197.604950 295.815094,203.712784 289.004669,206.824326
	C283.321899,209.420670 277.978546,208.376450 275.275208,203.938583
	C272.508789,199.397156 273.963470,193.563599 278.935455,189.927826
	C281.733490,187.881775 284.705078,186.073044 287.623322,183.891739
	C282.234924,185.440125 277.440033,185.063782 273.886902,179.751328
	C268.796570,183.431381 263.872070,187.078903 257.475311,187.667007
	C254.582825,187.932938 251.798203,187.587967 249.099899,186.797882
	C247.228714,186.250000 245.066925,185.353989 245.077026,182.937820
	C245.085892,180.818039 247.059921,179.922668 248.697006,179.203156
	C256.437134,175.801254 256.632721,175.500229 254.913895,166.796814
	C254.659500,165.508652 254.345261,164.232300 253.843155,161.986343
	C251.501892,166.660065 249.723297,170.650391 247.567688,174.425415
	C242.528931,183.249496 235.221115,189.336105 225.046356,191.065430
	C217.778351,192.300720 210.934784,191.336884 206.706833,183.331711
	C197.233017,193.025803 186.998962,198.996658 173.225464,193.174591
M101.606354,170.940323
	C108.163483,167.506897 112.504555,162.383698 113.673584,154.915344
	C113.962852,153.067291 113.844154,151.200272 111.989914,150.067581
	C110.441467,149.121674 108.956001,149.815643 107.887939,150.827484
	C101.951225,156.451736 98.884712,163.538864 97.002075,171.967239
	C98.817192,171.637024 99.905640,171.438995 101.606354,170.940323
M189.190262,162.423645
	C184.779678,163.774399 183.630737,167.333817 182.583633,171.345795
	C188.903717,171.337387 191.816681,167.466980 189.190262,162.423645
M227.987167,163.610168
	C228.502899,161.970413 229.792389,160.380981 228.101028,158.213776
	C223.151657,159.196335 222.014389,163.103287 220.441208,167.347824
	C224.206146,168.120499 226.114166,166.558975 227.987167,163.610168
M283.300995,198.486191
	C285.122833,197.464523 286.029816,195.949631 286.168762,193.681274
	C281.548737,195.587189 281.548737,195.587189 283.300995,198.486191
z"/>
  <path fill="#000000" opacity="1.000000" stroke="none"
        d="
M159.923248,246.113251
	C164.117432,239.850266 169.275803,235.960800 176.742645,235.184448
	C185.263916,234.298462 191.787216,239.388702 192.287354,248.009933
	C192.516983,251.968307 192.295334,255.926346 191.175842,260.728973
	C196.011017,258.874268 197.540512,255.562973 198.725723,252.008591
	C200.411377,246.953308 201.940491,241.838760 205.177399,237.473969
	C210.526825,230.260468 217.225403,228.875061 224.501495,233.968857
	C227.244125,235.888885 228.692078,234.101837 230.725479,233.170822
	C232.698837,232.267334 234.629700,229.904999 237.040207,231.900711
	C239.203751,233.691956 237.695831,235.961243 237.150604,237.943161
	C235.517471,243.879791 233.764923,249.784241 232.000580,255.683777
	C231.278870,258.096954 230.903732,260.458832 231.787766,263.086700
	C235.045044,262.969330 236.399734,260.880402 237.755356,258.807159
	C243.548401,249.947464 247.134491,240.063309 250.625122,230.189743
	C251.962387,226.407135 253.994675,225.320053 257.664490,225.691269
	C261.497162,226.078918 264.058685,227.572845 264.076080,231.777954
	C264.109680,239.904205 264.954224,247.916138 266.940186,256.290863
	C271.589996,253.000381 272.982788,248.322250 274.640717,243.913040
	C275.925262,240.496887 276.813324,236.919739 277.701050,233.369995
	C278.432892,230.443741 280.773346,227.427811 275.635437,225.349930
	C273.414764,224.451843 274.452637,220.589462 277.080322,219.936646
	C281.609192,218.811523 283.001434,215.839630 283.971252,211.855942
	C284.704834,208.842575 292.649261,206.516327 295.134338,208.415543
	C297.926788,210.549667 295.417969,213.406494 295.895264,215.939224
	C297.032837,217.566498 300.379517,217.253098 299.971771,220.274948
	C299.608093,222.970520 297.815125,224.194046 295.258728,224.688477
	C293.475159,225.033432 292.343750,226.330368 291.860168,228.030075
	C289.676056,235.707367 287.409119,243.366623 285.504883,251.114197
	C285.014313,253.110123 283.688507,256.272369 286.639099,257.271393
	C289.124207,258.112823 290.763519,255.543045 292.020966,253.602188
	C294.007172,250.536530 295.817322,247.353409 297.620697,244.173920
	C298.723328,242.229996 300.062073,240.812286 302.394836,242.068420
	C304.364563,243.129028 304.455292,244.918732 303.597595,246.824570
	C300.564026,253.565598 297.086548,259.938049 290.694397,264.233643
	C283.742676,268.905243 278.274170,268.430573 272.404083,262.171844
	C269.410522,264.323547 266.588654,266.845764 263.110199,268.390564
	C257.995148,270.662170 252.816620,271.005554 247.537598,269.270203
	C245.812119,268.703033 243.928818,267.907501 243.878906,265.673187
	C243.835892,263.747070 245.454773,262.821930 246.865524,261.968658
	C249.477509,260.388885 253.707474,261.475739 254.449341,256.784668
	C254.969299,253.496735 253.637756,250.540085 253.574036,247.392990
	C253.558029,246.601791 253.119720,245.819138 252.738419,244.591125
	C251.005798,246.348801 250.553833,248.386230 249.763351,250.241714
	C246.882462,257.003998 243.861435,263.645721 238.152115,268.671814
	C232.213837,273.899475 227.488861,274.651520 220.571121,270.794739
	C218.966187,269.899963 217.881866,269.864105 216.612350,271.102631
	C215.900497,271.797119 215.086502,272.397949 214.270691,272.973145
	C207.304596,277.884399 202.217514,276.132446 196.880188,266.821869
	C191.688583,269.480713 185.902649,270.482666 181.434113,275.215729
	C176.464310,280.479767 167.511124,280.952118 161.916550,277.741028
	C156.728470,274.763245 154.429398,268.425171 155.373917,260.651001
	C155.985474,255.617447 157.307632,250.873825 159.923248,246.113251
M168.253784,268.009155
	C168.943115,269.459686 169.800812,270.829163 171.627594,269.679382
	C173.015869,268.805603 174.917877,267.450928 174.217270,265.811523
	C171.928589,260.456085 174.554474,257.497375 178.497604,254.518219
	C180.562088,252.958435 180.314392,246.228271 178.397537,245.360367
	C174.715378,243.693207 173.345352,247.008469 172.107834,249.247742
	C169.021484,254.832474 167.661179,260.934937 168.253784,268.009155
M221.356491,249.789597
	C221.496063,249.140350 221.684525,248.497192 221.766220,247.840744
	C222.035172,245.679718 222.525940,243.180313 219.974121,242.206558
	C217.422714,241.232956 215.979172,243.463928 214.842865,245.215714
	C211.996323,249.604034 210.305191,254.442764 210.168167,259.730408
	C210.133896,261.052338 210.109131,262.517456 211.515060,263.244110
	C213.150848,264.089569 214.385986,263.066254 215.497284,262.039398
	C218.849060,258.942291 219.874481,254.695312 221.356491,249.789597
z"/>
  <path fill="#000000" opacity="1.000000" stroke="none"
        d="
M311.580811,265.721954
	C312.071381,262.530518 310.307587,257.914307 314.194397,257.768494
	C317.471191,257.645538 318.055237,262.303192 318.273987,265.284729
	C319.381927,280.384857 322.112823,295.285553 323.554688,310.327423
	C324.006348,315.039307 323.828461,319.904968 323.964172,324.702942
	C324.154846,331.442749 317.695679,336.221863 310.186707,335.948456
	C290.395477,335.227905 270.619019,336.406342 250.834534,336.654602
	C240.055038,336.789825 229.269836,336.376404 218.486862,336.348511
	C198.367325,336.296478 178.246582,336.468658 158.128082,336.318146
	C137.028870,336.160248 115.932220,335.674957 94.833084,335.481598
	C91.365425,335.449768 87.949669,336.058228 84.511322,334.842255
	C79.140877,332.943024 76.535583,329.793121 76.810066,324.025452
	C77.392044,311.795898 77.550598,299.545502 80.273079,287.470428
	C81.466599,282.176788 81.344276,276.575226 81.690811,271.105316
	C81.997658,266.261719 82.458763,261.506134 85.601089,257.476410
	C88.693138,257.668854 89.128326,259.836487 89.223846,262.036194
	C89.780685,274.859680 89.310555,287.676910 88.646355,300.479553
	C88.225708,308.587738 87.395348,316.674713 86.748146,324.778595
	C90.359535,326.314819 93.733833,325.768280 96.989471,325.791473
	C132.955612,326.047791 168.922440,326.365265 204.889008,326.356781
	C239.192764,326.348724 273.496368,325.892700 307.800262,325.854584
	C312.691376,325.849152 314.395172,324.260712 313.717072,319.492004
	C311.507355,303.951782 312.135773,288.243805 311.131348,272.629486
	C310.993958,270.493866 311.411835,268.322510 311.580811,265.721954
z"/>
  <path fill="#000000" opacity="1.000000" stroke="none"
        d="
M318.083984,129.178375
	C319.166626,118.852837 313.853241,112.057556 306.895142,106.120697
	C293.318085,94.536339 277.401581,87.853119 260.331970,83.163315
	C243.416824,78.515961 226.232880,76.526962 208.821854,75.067627
	C193.060989,73.746605 177.847702,76.405823 162.406677,78.360527
	C144.909836,80.575478 128.263748,85.399193 112.510857,92.944061
	C100.484703,98.704002 89.337669,106.028130 82.683968,118.399536
	C81.076660,121.388031 81.408867,124.514259 81.157188,127.638695
	C80.997704,129.618759 80.613701,131.580093 80.354431,133.552979
	C80.141563,135.172745 78.985580,135.700714 77.610725,136.017166
	C75.902023,136.410446 75.346245,135.271286 74.649872,134.031296
	C70.922043,127.393341 72.190041,120.812057 75.046303,114.408897
	C82.071716,98.659340 95.232903,89.471893 110.312256,82.822868
	C143.874390,68.024094 179.272263,62.324959 215.630890,64.965393
	C243.624466,66.998344 270.996613,73.093338 296.151917,86.402412
	C308.136597,92.743225 318.420776,101.159897 323.999695,114.023300
	C326.441162,119.652649 328.761414,125.501221 325.566986,131.705109
	C324.732147,133.326492 324.866791,135.766098 321.872406,135.580826
	C318.742737,135.387161 318.774597,133.151016 318.418365,131.036942
	C318.335449,130.544861 318.205353,130.060730 318.083984,129.178375
z"/>
  <path fill="#000000" opacity="1.000000" stroke="none"
        d="
M151.097549,218.737122
	C159.661911,219.588242 167.707489,220.437180 175.543076,216.813660
	C178.172791,215.597565 180.921158,217.111282 182.513931,219.440216
	C184.228394,221.947083 182.230972,223.914856 180.606812,225.504669
	C175.677277,230.329971 169.287827,231.024124 162.931030,230.662903
	C159.086731,230.444443 157.516571,231.779312 156.595291,235.206955
	C153.876877,245.320877 151.226379,255.464310 148.086014,265.450500
	C144.790863,275.928925 139.112686,284.511780 127.318611,286.803589
	C120.330521,288.161530 113.987167,286.597931 109.165840,281.116882
	C104.485947,275.796631 103.620071,269.598022 105.897064,262.906769
	C107.600357,257.901428 111.400375,255.134247 116.034294,253.255157
	C118.563469,252.229553 121.623650,251.054092 122.802376,254.553528
	C123.821098,257.577911 125.626495,261.493713 120.688194,263.432861
	C118.229141,264.398468 116.349854,265.860657 116.248245,268.835938
	C116.162285,271.352905 116.846558,273.496216 119.094658,274.808594
	C121.739494,276.352509 124.528717,276.265076 127.223877,274.940125
	C130.700836,273.230865 132.815994,270.201263 134.254593,266.779083
	C138.783051,256.006592 140.897476,244.481445 144.450165,233.399994
	C145.213287,231.019699 144.095169,229.500015 141.524353,229.336624
	C135.384384,228.946457 129.242737,228.579590 123.099197,228.251160
	C121.398453,228.160233 119.782555,228.623886 118.360893,229.574265
	C116.513557,230.809250 115.565315,232.543091 116.385277,234.713959
	C117.227264,236.943115 119.143250,237.396851 121.319557,237.048782
	C123.083015,236.766724 124.689728,235.147797 126.561783,236.085876
	C128.546448,237.080414 130.088516,238.685043 130.523056,240.950089
	C130.988647,243.377136 129.235397,244.502319 127.455460,245.555252
	C120.278831,249.800659 111.307899,247.945206 107.132790,241.333725
	C102.682190,234.285919 104.792465,224.892746 111.959053,220.325012
	C119.213722,215.701172 127.285248,216.586044 135.257126,217.179260
	C140.395844,217.561646 145.515854,218.195206 151.097549,218.737122
z"/>
  <path fill="#000000" opacity="1.000000" stroke="none"
        d="
M175.281601,291.824097
	C180.866974,290.449524 178.070084,295.999359 180.255005,297.409546
	C182.470978,297.189514 182.250946,295.447113 182.382568,294.063721
	C182.523239,292.585205 182.841263,291.424927 184.628342,291.450775
	C186.565186,291.478790 187.192596,292.707703 187.204300,294.393860
	C187.233063,298.534241 187.251984,302.675171 187.213196,306.815338
	C187.196625,308.583527 186.814285,310.223297 184.517395,310.161072
	C182.437836,310.104736 182.328354,308.512634 182.221451,306.985321
	C182.143204,305.867340 182.558960,304.661682 181.500183,303.529968
	C178.670486,303.537506 179.428375,305.833038 179.208069,307.391968
	C178.972107,309.061676 178.402222,310.294861 176.457336,310.167206
	C174.575943,310.043671 174.449295,308.594208 174.613968,307.266052
	C175.243332,302.190094 173.148117,297.050201 175.281601,291.824097
z"/>
  <path fill="#000000" opacity="1.000000" stroke="none"
        d="
M194.114532,111.960785
	C198.981293,112.056236 195.865524,116.914444 198.489883,118.295067
	C201.288589,117.995911 200.403854,115.704948 200.685699,114.109764
	C200.915375,112.809906 201.386063,111.916481 202.868134,111.969864
	C204.292664,112.021179 205.047256,112.913750 205.067612,114.183784
	C205.141876,118.819588 205.131882,123.457832 205.071716,128.094086
	C205.051361,129.662720 204.134628,130.541275 202.503387,130.423279
	C200.986359,130.313522 200.760681,129.196136 200.639252,127.957016
	C200.487976,126.413353 201.007950,124.575256 199.056213,123.646553
	C196.419159,124.456070 197.548599,126.665749 197.217194,128.249741
	C196.955261,129.501724 196.543167,130.494263 195.124619,130.592880
	C193.839478,130.682220 192.559708,130.183960 192.514969,128.860413
	C192.324402,123.222664 190.436859,117.438202 194.114532,111.960785
z"/>
  <path fill="#000000" opacity="1.000000" stroke="none"
        d="
M209.676910,306.819489
	C208.541946,303.007233 208.748978,299.531433 209.239853,296.084320
	C209.633942,293.316833 211.399612,291.665649 214.145386,291.176361
	C216.887268,290.687744 219.517441,291.043182 221.461319,293.198090
	C222.576874,294.434723 223.443207,296.266357 222.290665,297.730927
	C221.031677,299.330780 219.314255,298.694336 217.953720,297.422607
	C217.327957,296.837708 216.694504,296.353851 215.329422,296.562225
	C213.491501,299.339172 213.724365,302.251007 215.415176,305.541718
	C216.205963,305.145691 217.019928,305.013062 217.263916,304.567993
	C218.285797,302.703796 219.554688,300.649536 221.751465,302.350739
	C224.121719,304.186279 222.743225,306.659149 221.278000,308.489807
	C218.569550,311.873871 213.229095,311.200287 209.676910,306.819489
z"/>
  <path fill="#000000" opacity="1.000000" stroke="none"
        d="
M237.443298,291.541931
	C238.790649,291.726562 240.938644,291.855621 239.736343,293.235657
	C235.304291,298.322876 238.617371,302.850433 240.129135,307.579376
	C240.318787,308.172668 240.211151,308.860992 240.247681,309.642700
	C234.705368,311.886261 235.246490,306.551025 233.366226,304.304962
	C232.197845,304.728638 232.854599,305.650208 232.831955,306.339081
	C232.769791,308.229858 232.789612,310.250641 230.122528,310.115631
	C227.806351,309.998352 227.819778,308.073212 227.790268,306.419006
	C227.722290,302.608093 227.715836,298.795227 227.749283,294.983765
	C227.761856,293.549561 227.463806,291.928772 229.621185,291.517395
	C231.774139,291.106781 232.616806,292.310394 233.137161,294.088989
	C234.964127,293.932861 235.218307,291.403198 237.443298,291.541931
z"/>
  <path fill="#000000" opacity="1.000000" stroke="none"
        d="
M166.797623,299.426086
	C170.004669,301.949463 170.659378,304.750854 168.609604,307.936035
	C166.784103,310.772644 163.936188,310.913513 161.057602,310.212830
	C159.039459,309.721588 156.985321,308.538605 157.750504,306.098236
	C158.528366,303.617432 160.488571,303.582275 162.517166,305.071625
	C162.795761,305.276154 163.384186,305.058655 164.250824,305.015594
	C163.071060,302.783905 160.773727,302.707306 159.393829,301.425781
	C157.440186,299.611420 156.015625,297.617401 157.112030,294.861115
	C158.241440,292.021881 160.716278,290.917480 163.533554,291.054382
	C166.159882,291.181946 168.914764,292.356964 168.532867,295.390198
	C168.161789,298.337402 165.383972,297.183563 163.237061,297.229828
	C164.330963,297.895813 165.424866,298.561829 166.797623,299.426086
z"/>
  <path fill="#000000" opacity="1.000000" stroke="none"
        d="
M196.268417,308.705658
	C193.492737,310.910400 191.435349,310.885834 192.121399,307.053345
	C192.908371,302.657013 194.427750,298.393860 195.579330,294.059662
	C196.027802,292.371826 197.032593,291.548553 198.775436,291.518585
	C200.743866,291.484680 201.254349,292.907379 201.676910,294.375702
	C202.824249,298.362488 203.968658,302.351044 205.026810,306.362000
	C205.348541,307.581482 206.045288,309.125854 204.476868,309.930359
	C202.930008,310.723755 201.614822,310.155304 200.790024,308.523193
	C199.459366,305.890015 197.973022,306.014038 196.268417,308.705658
z"/>
  <path fill="#000000" opacity="1.000000" stroke="none"
        d="
M219.046967,119.150940
	C222.247894,123.523582 216.623672,122.629013 216.033951,124.539940
	C216.146210,124.946297 216.141006,125.153465 216.241989,125.258896
	C217.675552,126.755562 221.897232,125.337585 220.990219,128.935425
	C220.191986,132.101730 216.852936,130.722290 214.562103,130.873337
	C211.520157,131.073883 210.579422,129.241119 210.681824,126.448196
	C210.791138,123.466888 210.672531,120.477989 210.709274,117.493088
	C210.773972,112.237350 214.736923,109.817070 219.628448,111.972237
	C220.466110,112.341293 221.018372,112.825249 221.114883,113.731888
	C221.231903,114.830833 220.848770,115.679604 219.757324,116.084923
	C218.575836,116.523674 217.083832,116.066849 216.156326,117.160477
	C216.215393,119.135765 217.874557,118.432060 219.046967,119.150940
z"/>
  <path fill="#000000" opacity="1.000000" stroke="none"
        d="
M185.555450,111.796921
	C188.031494,112.541374 188.966110,114.674576 187.289642,115.471039
	C183.059555,117.480675 184.484085,120.935966 184.200531,124.006119
	C184.078735,125.324875 184.149277,126.660255 184.071106,127.984467
	C183.980560,129.518204 183.206177,130.492264 181.594666,130.515732
	C179.969635,130.539444 179.142548,129.536652 179.058533,128.036758
	C178.928757,125.720123 178.972229,123.394310 178.906342,121.073410
	C178.850723,119.114380 179.170441,117.025520 176.628281,116.117462
	C175.412903,115.683319 174.896118,114.580406 175.314423,113.275543
	C175.753128,111.907028 176.962357,111.759850 178.147552,111.743484
	C180.470291,111.711418 182.793884,111.740768 185.555450,111.796921
z"/>
</svg>
