<svg version="1.1" id="Layer_1" xmlns="http://www.w3.org/2000/svg" x="0px" y="0px"
     width="100%" viewBox="0 0 200 200" enable-background="new 0 0 200 200" xml:space="preserve">
<path fill="#FFFEFE" opacity="1.000000" stroke="none"
      d="
M91.000000,201.000000
	C60.685322,201.000000 30.870644,201.000000 1.027983,201.000000
	C1.027983,134.393692 1.027983,67.787354 1.027983,1.090514
	C67.564529,1.090514 134.129211,1.090514 200.846954,1.090514
	C200.846954,67.666397 200.846954,134.333160 200.846954,201.000000
	C164.454315,201.000000 127.977158,201.000000 91.000000,201.000000
M33.161812,119.081215
	C33.438122,119.407791 33.714436,119.734375 34.915268,120.239586
	C47.292408,120.189026 59.669544,120.138458 72.814270,120.297104
	C73.865623,120.230476 74.916985,120.163841 76.499100,120.198372
	C76.663788,120.125450 76.828476,120.052528 77.662987,119.811638
	C86.219322,103.745384 97.137138,89.920776 114.327919,80.730354
	C116.346672,95.523102 111.005028,107.726295 104.999557,120.071434
	C119.424438,120.071434 133.202103,120.071434 147.501846,120.219673
	C147.678452,120.180519 147.855057,120.141365 148.663300,120.293221
	C149.093826,120.229553 149.524353,120.165886 150.881012,120.259323
	C155.270538,120.206940 159.660065,120.154556 164.818283,120.300209
	C165.868362,120.237892 166.918427,120.175575 168.503723,120.211082
	C168.666016,120.130127 168.828308,120.049164 169.657227,119.721672
	C180.903412,97.676933 174.241043,68.574173 159.544098,63.039452
	C159.396515,77.493095 156.065338,90.539803 143.097824,100.547943
	C146.459595,85.564034 146.736786,71.737450 142.201797,58.101440
	C139.866623,51.079849 136.998215,49.459991 129.842300,50.400906
	C105.223709,53.637936 83.503670,63.458702 64.624756,79.449257
	C51.691418,90.403870 40.472198,102.834198 33.614697,118.688362
	C33.614697,118.688362 33.593594,118.724579 33.161812,119.081215
M107.908730,136.997437
	C108.517342,137.461914 109.125954,137.926407 109.734558,138.390884
	C109.018974,138.960709 108.312202,140.012192 107.586426,140.025482
	C100.716324,140.151245 93.842987,140.100372 86.039680,140.100372
	C88.238754,134.535446 90.022110,130.022522 91.845093,125.409332
	C86.195442,124.872040 86.190590,124.870003 84.354103,129.237366
	C83.258728,131.842285 82.108025,134.427094 81.111389,137.069687
	C79.070198,142.481934 80.319847,144.611450 86.071205,144.801620
	C93.047592,145.032303 100.039124,144.973236 107.018951,144.814011
	C108.762146,144.774231 111.109802,144.395050 112.078743,143.244629
	C113.726379,141.288376 115.490211,138.497742 115.266319,136.250946
	C115.134354,134.926697 111.362076,133.659012 109.047081,132.972916
	C107.650452,132.559006 105.908890,133.308990 104.322319,133.535980
	C103.962402,133.220932 103.602493,132.905884 103.242577,132.590836
	C104.138382,131.577789 104.917183,129.859863 105.952614,129.688004
	C108.710381,129.230270 111.638969,129.764816 114.380219,129.258377
	C116.013855,128.956589 117.422249,127.435555 118.931900,126.462624
	C118.629829,125.842331 118.327766,125.222038 118.025696,124.601746
	C112.615494,125.074837 107.021484,124.893768 101.883987,126.337379
	C99.777679,126.929245 98.656967,131.028595 97.087921,133.532394
	C99.243401,134.658524 101.338745,135.932800 103.581757,136.843307
	C104.583679,137.250015 105.882263,136.925934 107.908730,136.997437
M28.205095,131.548370
	C26.452518,135.787796 24.699940,140.027222 22.896797,144.388962
	C28.412668,145.105270 28.428049,145.112030 30.185265,141.112427
	C31.185947,138.834778 32.124275,136.529755 33.094845,134.238815
	C35.342514,128.933426 36.195621,128.599869 42.501377,130.918884
	C40.731831,135.411423 38.959850,139.910141 37.187870,144.408859
	C37.559452,144.826523 37.931034,145.244186 38.302616,145.661835
	C40.164654,144.584915 42.771725,143.952316 43.733952,142.338791
	C45.749611,138.958786 47.181026,135.142715 48.266811,131.338608
	C48.706276,129.798889 47.839920,126.377022 47.185047,126.275284
	C42.330692,125.521164 37.340797,124.926117 32.483063,125.337891
	C31.008247,125.462914 29.814789,128.907150 28.205095,131.548370
M67.890442,136.674438
	C68.342163,135.598038 68.793884,134.521637 69.517120,132.798264
	C64.930862,132.798264 61.181309,132.798264 56.788422,132.798264
	C59.816051,128.154816 63.939548,129.585205 67.450317,129.444565
	C70.400986,129.326355 72.689346,129.020508 72.460312,125.054016
	C69.156578,125.054016 65.998230,124.958206 62.847553,125.073013
	C55.159897,125.353127 49.215588,130.796951 48.456390,138.395340
	C48.321526,139.745087 48.773567,141.425171 49.549671,142.537521
	C51.150890,144.832458 62.548393,146.111603 64.702042,144.261292
	C65.516769,143.561325 65.694008,142.119354 66.315575,140.652893
	C61.798183,140.435806 57.997818,140.253174 54.197453,140.070541
	C54.167854,139.411911 54.138252,138.753281 54.108654,138.094635
	C58.123775,135.978256 62.761040,137.557175 67.890442,136.674438
M146.626678,129.940948
	C144.613098,134.627014 142.599503,139.313080 140.530869,144.127289
	C144.523743,145.703323 146.745743,144.893631 147.875946,141.196747
	C148.552063,138.985153 149.632706,136.896164 150.546463,134.758453
	C153.029236,128.950165 153.607483,128.691757 160.235336,130.738876
	C158.426178,135.263168 156.625198,139.766983 154.824219,144.270782
	C155.219467,144.702866 155.614716,145.134949 156.009964,145.567017
	C157.772003,144.617905 160.293152,144.107315 161.145172,142.632477
	C163.204315,139.068146 164.519135,135.067688 166.068344,131.216644
	C167.499603,127.658775 165.860245,125.656235 162.431870,125.253349
	C159.311188,124.886597 156.098083,125.318756 152.973404,124.970619
	C149.505554,124.584251 147.611160,125.909760 146.626678,129.940948
M141.176712,135.583496
	C143.253464,129.501541 142.184906,126.341286 137.643311,125.133347
	C129.874191,123.066963 120.556725,128.115158 117.924271,135.817093
	C116.213959,140.821075 118.444786,144.499878 123.751831,144.963364
	C131.201584,145.613968 137.072601,142.894608 141.176712,135.583496
M70.327774,139.875198
	C69.809990,141.340393 69.292206,142.805588 68.774422,144.270782
	C69.167458,144.714050 69.560486,145.157303 69.953522,145.600571
	C71.821548,144.584747 74.588768,144.032379 75.394547,142.469040
	C78.177284,137.070114 80.276199,131.318741 82.730377,125.475655
	C78.740768,124.444427 76.113686,124.791298 74.869530,129.111328
	C73.870773,132.579224 72.109398,135.827499 70.327774,139.875198
z"/>
  <path fill="#F68F21" opacity="1.000000" stroke="none"
        d="
M75.968338,120.097214
	C74.916985,120.163841 73.865623,120.230476 72.145645,119.877266
	C69.504791,119.305153 67.534096,119.047020 65.560059,119.018257
	C54.908703,118.863022 44.256516,118.764671 33.604614,118.646698
	C40.472198,102.834198 51.691418,90.403870 64.624756,79.449257
	C83.503670,63.458702 105.223709,53.637936 129.842300,50.400906
	C136.998215,49.459991 139.866623,51.079849 142.201797,58.101440
	C146.736786,71.737450 146.459595,85.564034 143.097824,100.547943
	C156.065338,90.539803 159.396515,77.493095 159.544098,63.039452
	C174.241043,68.574173 180.903412,97.676933 169.216278,119.680756
	C168.506393,119.797646 168.237457,119.955460 167.968506,120.113266
	C166.918427,120.175575 165.868362,120.237892 164.154037,119.884308
	C158.978149,119.679672 154.466522,119.890945 149.954880,120.102219
	C149.524353,120.165886 149.093826,120.229553 148.256424,120.014702
	C147.559631,119.847939 147.269699,119.959686 146.979782,120.071434
	C133.202103,120.071434 119.424438,120.071434 104.999557,120.071434
	C111.005028,107.726295 116.346672,95.523102 114.327919,80.730354
	C97.137138,89.920776 86.219322,103.745384 77.222260,119.730881
	C76.510468,119.799164 76.239403,119.948189 75.968338,120.097214
z"/>
  <path fill="#767E86" opacity="1.000000" stroke="none"
        d="
M107.477463,136.965485
	C105.882263,136.925934 104.583679,137.250015 103.581757,136.843307
	C101.338745,135.932800 99.243401,134.658524 97.087921,133.532394
	C98.656967,131.028595 99.777679,126.929245 101.883987,126.337379
	C107.021484,124.893768 112.615494,125.074837 118.025696,124.601746
	C118.327766,125.222038 118.629829,125.842331 118.931900,126.462624
	C117.422249,127.435555 116.013855,128.956589 114.380219,129.258377
	C111.638969,129.764816 108.710381,129.230270 105.952614,129.688004
	C104.917183,129.859863 104.138382,131.577789 103.242577,132.590836
	C103.602493,132.905884 103.962402,133.220932 104.322319,133.535980
	C105.908890,133.308990 107.650452,132.559006 109.047081,132.972916
	C111.362076,133.659012 115.134354,134.926697 115.266319,136.250946
	C115.490211,138.497742 113.726379,141.288376 112.078743,143.244629
	C111.109802,144.395050 108.762146,144.774231 107.018951,144.814011
	C100.039124,144.973236 93.047592,145.032303 86.071205,144.801620
	C80.319847,144.611450 79.070198,142.481934 81.111389,137.069687
	C82.108025,134.427094 83.258728,131.842285 84.354103,129.237366
	C86.190590,124.870003 86.195442,124.872040 91.845093,125.409332
	C90.022110,130.022522 88.238754,134.535446 86.039680,140.100372
	C93.842987,140.100372 100.716324,140.151245 107.586426,140.025482
	C108.312202,140.012192 109.018974,138.960709 109.734558,138.390884
	C109.125954,137.926407 108.517342,137.461914 107.477463,136.965485
z"/>
  <path fill="#757E85" opacity="1.000000" stroke="none"
        d="
M28.348778,131.189743
	C29.814789,128.907150 31.008247,125.462914 32.483063,125.337891
	C37.340797,124.926117 42.330692,125.521164 47.185047,126.275284
	C47.839920,126.377022 48.706276,129.798889 48.266811,131.338608
	C47.181026,135.142715 45.749611,138.958786 43.733952,142.338791
	C42.771725,143.952316 40.164654,144.584915 38.302616,145.661835
	C37.931034,145.244186 37.559452,144.826523 37.187870,144.408859
	C38.959850,139.910141 40.731831,135.411423 42.501377,130.918884
	C36.195621,128.599869 35.342514,128.933426 33.094845,134.238815
	C32.124275,136.529755 31.185947,138.834778 30.185265,141.112427
	C28.428049,145.112030 28.412668,145.105270 22.896797,144.388962
	C24.699940,140.027222 26.452518,135.787796 28.348778,131.189743
z"/>
  <path fill="#747C84" opacity="1.000000" stroke="none"
        d="
M67.463936,136.833527
	C62.761040,137.557175 58.123775,135.978256 54.108654,138.094635
	C54.138252,138.753281 54.167854,139.411911 54.197453,140.070541
	C57.997818,140.253174 61.798183,140.435806 66.315575,140.652893
	C65.694008,142.119354 65.516769,143.561325 64.702042,144.261292
	C62.548393,146.111603 51.150890,144.832458 49.549671,142.537521
	C48.773567,141.425171 48.321526,139.745087 48.456390,138.395340
	C49.215588,130.796951 55.159897,125.353127 62.847553,125.073013
	C65.998230,124.958206 69.156578,125.054016 72.460312,125.054016
	C72.689346,129.020508 70.400986,129.326355 67.450317,129.444565
	C63.939548,129.585205 59.816051,128.154816 56.788422,132.798264
	C61.181309,132.798264 64.930862,132.798264 69.517120,132.798264
	C68.793884,134.521637 68.342163,135.598038 67.463936,136.833527
z"/>
  <path fill="#747D84" opacity="1.000000" stroke="none"
        d="
M146.772079,129.578812
	C147.611160,125.909760 149.505554,124.584251 152.973404,124.970619
	C156.098083,125.318756 159.311188,124.886597 162.431870,125.253349
	C165.860245,125.656235 167.499603,127.658775 166.068344,131.216644
	C164.519135,135.067688 163.204315,139.068146 161.145172,142.632477
	C160.293152,144.107315 157.772003,144.617905 156.009964,145.567017
	C155.614716,145.134949 155.219467,144.702866 154.824219,144.270782
	C156.625198,139.766983 158.426178,135.263168 160.235336,130.738876
	C153.607483,128.691757 153.029236,128.950165 150.546463,134.758453
	C149.632706,136.896164 148.552063,138.985153 147.875946,141.196747
	C146.745743,144.893631 144.523743,145.703323 140.530869,144.127289
	C142.599503,139.313080 144.613098,134.627014 146.772079,129.578812
z"/>
  <path fill="#717A82" opacity="1.000000" stroke="none"
        d="
M141.027313,135.916595
	C137.072601,142.894608 131.201584,145.613968 123.751831,144.963364
	C118.444786,144.499878 116.213959,140.821075 117.924271,135.817093
	C120.556725,128.115158 129.874191,123.066963 137.643311,125.133347
	C142.184906,126.341286 143.253464,129.501541 141.027313,135.916595
M128.165863,140.916641
	C128.637665,140.774902 129.126129,140.673264 129.578659,140.485153
	C133.548279,138.834976 136.028931,135.885727 136.380417,131.617676
	C136.445450,130.828033 134.552628,129.187271 133.481964,129.112930
	C128.752899,128.784592 125.900635,131.653610 124.017784,135.637817
	C122.383835,139.095352 123.354767,141.042633 128.165863,140.916641
z"/>
  <path fill="#757D85" opacity="1.000000" stroke="none"
        d="
M70.507111,139.524216
	C72.109398,135.827499 73.870773,132.579224 74.869530,129.111328
	C76.113686,124.791298 78.740768,124.444427 82.730377,125.475655
	C80.276199,131.318741 78.177284,137.070114 75.394547,142.469040
	C74.588768,144.032379 71.821548,144.584747 69.953522,145.600571
	C69.560486,145.157303 69.167458,144.714050 68.774422,144.270782
	C69.292206,142.805588 69.809990,141.340393 70.507111,139.524216
z"/>
  <path fill="#F58206" opacity="1.000000" stroke="none"
        d="
M33.609657,118.667526
	C44.256516,118.764671 54.908703,118.863022 65.560059,119.018257
	C67.534096,119.047020 69.504791,119.305153 71.761856,119.772659
	C59.669544,120.138458 47.292408,120.189026 34.388031,119.805954
	C33.771725,119.156403 33.682659,118.940491 33.593594,118.724579
	C33.593594,118.724579 33.614697,118.688362 33.609657,118.667526
z"/>
  <path fill="#F6850D" opacity="1.000000" stroke="none"
        d="
M150.417938,120.180771
	C154.466522,119.890945 158.978149,119.679672 163.769684,119.785278
	C159.660065,120.154556 155.270538,120.206940 150.417938,120.180771
z"/>
  <path fill="#F68F21" opacity="1.000000" stroke="none"
        d="
M33.377701,118.902893
	C33.682659,118.940491 33.771725,119.156403 33.925770,119.716637
	C33.714436,119.734375 33.438122,119.407791 33.377701,118.902893
z"/>
  <path fill="#F58206" opacity="1.000000" stroke="none"
        d="
M76.233719,120.147797
	C76.239403,119.948189 76.510468,119.799164 76.887344,119.814873
	C76.828476,120.052528 76.663788,120.125450 76.233719,120.147797
z"/>
  <path fill="#F6850D" opacity="1.000000" stroke="none"
        d="
M147.240814,120.145554
	C147.269699,119.959686 147.559631,119.847939 147.940613,119.919189
	C147.855057,120.141365 147.678452,120.180519 147.240814,120.145554
z"/>
  <path fill="#F6850D" opacity="1.000000" stroke="none"
        d="
M168.236115,120.162178
	C168.237457,119.955460 168.506393,119.797646 168.882980,119.804016
	C168.828308,120.049164 168.666016,120.130127 168.236115,120.162178
z"/>
  <path fill="#F6F7F7" opacity="1.000000" stroke="none"
        d="
M127.776703,140.960495
	C123.354767,141.042633 122.383835,139.095352 124.017784,135.637817
	C125.900635,131.653610 128.752899,128.784592 133.481964,129.112930
	C134.552628,129.187271 136.445450,130.828033 136.380417,131.617676
	C136.028931,135.885727 133.548279,138.834976 129.578659,140.485153
	C129.126129,140.673264 128.637665,140.774902 127.776703,140.960495
z"/>
</svg>
