<?xml version="1.0" encoding="utf-8"?>
<svg version="1.1" id="layer" xmlns="http://www.w3.org/2000/svg" x="0px" y="0px"
     viewBox="0 0 652 652" style="enable-background:new 0 0 652 652;" xml:space="preserve">
<style type="text/css">
	.st0{fill:#222D71;}
	.st1{fill:#C0284C;}
</style>
  <path class="st0" d="M72,185.8c-0.5,1.8-4.6,21.5-8.6,43.8c-15.2,81.7-40.7,217.8-42,223.1l-1.3,5.8h36.4c32.6,0,36.7-0.5,37.9-4.6
	c0.5-2.3,10.6-50.6,22.3-107.3l21-103.2h29.6c28.8,0,29.6,0.3,34.7,6.6c6.3,8.1,7.1,25.3,1.3,33.4c-6.8,10.1-16.7,13.2-41.2,13.2
	c-21.8,0-23,0.3-24.3,5.6c-2,9.1-11.4,58.7-11.4,60.7c0,1.3,7.3,2,16.2,2c16.2,0,16.4,0,18.7,8.1c1.5,4.6,8.1,25.8,14.7,46.8
	l11.9,38.7h76.9L246.3,401c-10.4-31.4-18.5-57.4-18.2-57.7c0.5-0.3,6.1-3,12.6-6.1c6.8-3.3,14.7-9.1,17.5-13.4
	c5.3-7.3,5.3-8.1,1.5-14.4c-2.3-3.5-20.5-33.6-40.2-66.8l-36.2-59.9h-55.1C86.4,182.7,72.7,183.5,72,185.8z"/>
  <path class="st1" d="M212.9,192.4c48.6,80.2,84,137.1,85.2,137.1c1,0,9.4-14.7,18.7-32.6l16.9-32.6l-23.3-40.5L287,183l-40-0.3h-40
	L212.9,192.4L212.9,192.4z"/>
  <path class="st1" d="M366.9,229c-13.2,25.3-39.7,76.6-58.9,114.1l-35.4,68l7.1,23.8l7.1,23.8L309,458l22.5-0.8l69.6-136.3
	c38.2-74.9,69.3-136.6,69.3-137.1s-18-1-39.7-1h-40L366.9,229L366.9,229z"/>
  <path class="st0" d="M473.7,223.7c-11.4,22.8-43,84.7-70.3,137.9l-49.6,96.9H435l11.4-22.8l11.4-22.8h36.4c32.6,0,36.7,0.5,37.9,4.3
	c0.5,2.5,2.5,12.9,4.3,22.8l3,18.5h80.7l-1.3-5.8c-0.8-3-12.4-61.2-25.8-129.3c-13.2-68.3-24.5-124.2-24.8-124.7
	c-0.5-0.5-11.6,24.3-25,54.9l-24,55.6l3,20.2c1.5,11.1,2.3,20.7,1.8,21.5c-0.8,0.8-9.4,1.3-19,1.3c-15.7,0-17.2-0.5-15.7-4.6
	c0.8-2.3,16.9-39.7,35.7-83c18.7-43,33.9-79.2,33.9-80.2c0-1-14.4-1.8-32.4-1.8h-32.1L473.7,223.7L473.7,223.7z"/>
</svg>
