<svg version="1.1" id="Layer_1" xmlns="http://www.w3.org/2000/svg" xmlns:xlink="http://www.w3.org/1999/xlink" x="0px" y="0px"
	 width="100%" viewBox="0 0 200 200" enable-background="new 0 0 200 200" xml:space="preserve">
<path fill="#FEFEFE" opacity="1.000000" stroke="none" 
	d="
M201.000000,83.000000 
	C201.000000,122.642174 201.000000,161.784348 201.000000,200.963257 
	C134.399521,200.963257 67.799019,200.963257 1.099259,200.963257 
	C1.099259,134.441315 1.099259,67.882446 1.099259,1.161784 
	C67.666351,1.161784 134.333145,1.161784 201.000000,1.161784 
	C201.000000,28.200712 201.000000,55.350357 201.000000,83.000000 
M73.177696,113.924843 
	C65.595413,115.337677 58.013130,116.750504 49.597336,118.318649 
	C52.302856,111.821098 54.572598,105.257973 57.723507,99.149361 
	C60.316544,94.122299 63.092567,93.708855 68.136444,96.031197 
	C69.029724,96.442490 70.080933,96.516968 70.963135,96.945000 
	C74.126823,98.480003 77.618713,99.648773 80.275703,101.824181 
	C82.590393,103.719315 84.451653,104.694946 86.749695,102.673531 
	C88.872810,100.805992 89.069893,98.723953 87.146736,96.155807 
	C82.808937,90.363205 78.820549,84.308952 74.514534,78.108490 
	C74.964996,77.483864 75.706375,76.455833 77.118973,74.497047 
	C73.277557,75.539810 70.498589,76.719002 67.632019,76.997932 
	C55.922676,78.137299 45.926472,83.136192 37.015785,90.428680 
	C35.420185,91.734520 34.002125,94.489937 34.135334,96.465942 
	C34.771931,105.909119 36.314930,115.295990 36.819653,124.741135 
	C37.057735,129.196564 38.426899,130.222000 42.688885,130.197739 
	C74.018761,130.019470 105.350098,130.098526 136.680969,130.096024 
	C144.680344,130.095383 152.682907,129.961273 160.677521,130.155502 
	C163.921432,130.234314 164.920517,129.155457 165.107254,125.923203 
	C165.509399,118.962662 165.497574,111.774101 167.340729,105.147705 
	C170.265289,94.633446 165.477890,89.446716 157.135178,84.584709 
	C147.309509,78.858444 136.511871,77.616646 127.385704,75.265594 
	C126.684662,77.755638 126.589737,79.698158 125.665993,81.090996 
	C122.014862,86.596237 117.884087,91.795891 114.466377,97.433327 
	C113.743378,98.625900 114.703209,101.957458 115.944847,102.878807 
	C116.994118,103.657410 119.712440,102.689857 121.447533,101.933868 
	C124.813698,100.467232 127.993599,98.577446 131.283203,96.927856 
	C132.161972,96.487190 133.378464,96.531181 134.064941,95.926781 
	C138.258514,92.234535 141.588623,94.571274 143.486343,98.069328 
	C146.981277,104.511513 149.659012,111.397011 153.020599,118.859909 
	C145.612015,117.084526 139.724335,115.559425 133.782578,114.286858 
	C129.245422,113.315117 124.553848,112.983887 120.086456,111.787254 
	C114.577309,110.311584 110.389320,106.997719 110.081001,100.786095 
	C109.800621,95.137283 109.621956,89.419106 110.172752,83.807510 
	C111.144836,73.904015 117.608124,69.145653 127.476135,70.836067 
	C134.994919,72.124023 142.402039,74.060524 149.917786,75.370308 
	C162.571198,77.575447 174.321945,64.855797 170.965652,52.785915 
	C168.524216,44.006001 156.414215,38.620277 146.921432,41.707397 
	C148.924316,46.917149 151.263458,52.042000 152.845779,57.390743 
	C154.386917,62.600376 156.433228,66.879333 163.810287,67.507393 
	C154.213791,73.006851 146.474274,69.915596 138.359329,66.901352 
	C145.688385,59.686977 146.806000,52.209957 141.795975,46.148182 
	C135.757141,38.841633 124.008759,37.518879 115.886383,43.004494 
	C118.369301,46.004875 121.124924,48.849792 123.306519,52.082138 
	C126.777405,57.224728 129.721664,62.806065 137.353516,63.013683 
	C127.260521,64.825714 116.604904,60.730507 107.158096,68.559647 
	C107.034592,54.862389 107.512497,42.731976 115.287231,31.864725 
	C124.244667,40.262947 134.542450,32.377213 143.704544,36.259289 
	C143.668335,23.377735 130.929688,15.312246 118.606758,23.055025 
	C113.933266,25.991491 110.333633,31.130878 107.216408,35.901257 
	C104.499649,40.058804 103.149902,45.109634 100.730042,50.876522 
	C98.250267,41.845047 93.807854,34.428982 95.319122,25.231297 
	C107.022293,31.592358 109.627724,17.874649 118.344963,16.387325 
	C112.333923,11.000302 106.140350,9.644899 99.779243,11.459810 
	C91.188133,13.910973 92.190002,21.965487 91.496185,28.934462 
	C78.345367,19.673296 73.432312,18.247934 66.454369,21.869833 
	C60.939873,24.732126 58.729057,29.638723 58.262119,36.461021 
	C67.785049,32.380360 78.188278,40.320618 86.848190,31.859125 
	C94.612526,43.037159 95.047890,55.096333 94.785179,68.929787 
	C85.382820,60.258018 74.435593,65.544685 64.709183,62.663090 
	C70.966385,62.859261 74.194710,58.963371 77.240486,54.539005 
	C80.003387,50.525539 83.078995,46.727341 86.005394,42.849274 
	C77.982430,37.622467 66.650536,38.830349 60.521709,45.850132 
	C55.256004,51.881321 56.144718,58.557190 63.618824,67.019791 
	C55.505627,69.661087 47.756084,73.491089 40.027817,68.442169 
	C42.642330,66.181068 46.074715,64.533417 47.336220,61.861015 
	C50.463711,55.235668 52.599228,48.142056 55.230431,40.971722 
	C52.531937,40.971722 49.694569,40.766071 46.895920,41.008118 
	C36.060104,41.945274 28.697021,51.173409 30.998795,60.764614 
	C33.443607,70.951859 42.713020,77.020287 53.294941,75.115913 
	C60.151863,73.881912 66.903137,72.028343 73.778770,70.938164 
	C85.346878,69.103943 91.472313,74.291229 92.088867,85.988708 
	C92.167770,87.485504 92.172852,88.987106 92.179710,90.486641 
	C92.261528,108.376305 91.352570,109.542389 73.177696,113.924843 
M114.500000,144.943466 
	C130.569031,144.943466 146.638062,144.943466 162.849930,144.943466 
	C163.309143,141.321289 163.672363,138.456223 164.055115,135.437256 
	C121.679298,135.437256 80.019699,135.437256 37.894329,135.437256 
	C38.418743,138.793655 38.868675,141.673355 39.379585,144.943344 
	C64.285736,144.943344 88.892868,144.943344 114.500000,144.943466 
M106.280876,177.250702 
	C106.672066,179.081909 105.138969,182.262375 108.803383,181.794281 
	C109.701935,181.679504 110.696930,178.978394 110.885185,177.376724 
	C111.222206,174.509399 110.980164,171.574020 110.980164,168.140350 
	C117.573563,172.046036 119.337677,180.642319 127.887428,182.447495 
	C127.887428,175.770859 128.028793,169.988892 127.785309,164.223190 
	C127.726448,162.829269 126.396004,161.489029 125.650307,160.124115 
	C124.825996,161.568192 123.504387,162.941483 123.286537,164.471878 
	C122.898315,167.199188 123.177361,170.021484 123.177361,172.804062 
	C122.666489,172.875031 122.155617,172.945984 121.644745,173.016953 
	C118.563576,169.371613 115.595924,165.619629 112.332146,162.145859 
	C111.352112,161.102783 109.365196,160.132828 108.178825,160.439941 
	C107.272400,160.674576 106.461815,162.948273 106.375031,164.362000 
	C106.131348,168.331451 106.284081,172.325256 106.280876,177.250702 
M41.736687,182.052124 
	C44.892490,182.051056 48.156990,182.551666 51.171505,181.898514 
	C53.834091,181.321609 57.275345,180.037369 58.399311,177.984787 
	C59.344086,176.259445 57.447414,172.978149 56.513607,169.188080 
	C59.484478,164.837555 57.456421,160.594406 50.338638,160.142487 
	C46.750912,159.914703 43.136787,160.102722 39.032036,160.102722 
	C39.032036,167.168365 38.980038,173.602631 39.109371,180.033234 
	C39.122875,180.704758 40.209568,181.354691 41.736687,182.052124 
M154.458481,167.966827 
	C157.078842,165.816269 159.699188,163.665695 162.319550,161.515137 
	C161.857330,161.024780 161.395096,160.534424 160.932877,160.044067 
	C153.802948,159.886734 151.933273,167.949753 145.992310,170.338013 
	C145.992310,167.610809 146.187973,165.261017 145.901077,162.971695 
	C145.777191,161.983185 144.655823,161.119675 143.987595,160.199387 
	C143.285339,161.099655 142.011398,161.977890 141.975708,162.903854 
	C141.776947,168.059525 141.741608,173.233017 141.977020,178.385498 
	C142.033127,179.613419 143.336731,180.784363 144.066544,181.981506 
	C144.703796,180.868546 145.406677,179.787308 145.963547,178.635483 
	C146.895065,176.708588 147.733383,174.736618 148.786179,172.393570 
	C159.054962,181.921158 159.054962,181.921158 162.097870,181.086838 
	C159.682098,178.179749 157.238174,175.487518 155.119949,172.559647 
	C154.341431,171.483551 154.332809,169.850433 154.458481,167.966827 
M72.180740,176.677124 
	C71.476692,178.253494 70.772644,179.829849 69.846603,181.903244 
	C75.487801,182.691574 76.588455,176.550232 82.027130,176.361542 
	C87.672440,176.165680 88.664970,183.193375 94.527634,181.527908 
	C91.195900,174.677582 88.230003,168.208069 84.913551,161.923569 
	C83.349823,158.960419 80.619987,159.271881 78.963943,162.505142 
	C76.690681,166.943436 74.664261,171.508194 72.180740,176.677124 
z"/>
<path fill="#A9AAAD" opacity="1.000000" stroke="none" 
	d="
M73.607681,113.865051 
	C91.352570,109.542389 92.261528,108.376305 92.179710,90.486641 
	C92.172852,88.987106 92.167770,87.485504 92.088867,85.988708 
	C91.472313,74.291229 85.346878,69.103943 73.778770,70.938164 
	C66.903137,72.028343 60.151863,73.881912 53.294941,75.115913 
	C42.713020,77.020287 33.443607,70.951859 30.998795,60.764614 
	C28.697021,51.173409 36.060104,41.945274 46.895920,41.008118 
	C49.694569,40.766071 52.531937,40.971722 55.230431,40.971722 
	C52.599228,48.142056 50.463711,55.235668 47.336220,61.861015 
	C46.074715,64.533417 42.642330,66.181068 40.027817,68.442169 
	C47.756084,73.491089 55.505627,69.661087 63.618824,67.019791 
	C56.144718,58.557190 55.256004,51.881321 60.521709,45.850132 
	C66.650536,38.830349 77.982430,37.622467 86.005394,42.849274 
	C83.078995,46.727341 80.003387,50.525539 77.240486,54.539005 
	C74.194710,58.963371 70.966385,62.859261 64.709183,62.663090 
	C74.435593,65.544685 85.382820,60.258018 94.785179,68.929787 
	C95.047890,55.096333 94.612526,43.037159 86.848190,31.859125 
	C78.188278,40.320618 67.785049,32.380360 58.262119,36.461021 
	C58.729057,29.638723 60.939873,24.732126 66.454369,21.869833 
	C73.432312,18.247934 78.345367,19.673296 91.496185,28.934462 
	C92.190002,21.965487 91.188133,13.910973 99.779243,11.459810 
	C106.140350,9.644899 112.333923,11.000302 118.344963,16.387325 
	C109.627724,17.874649 107.022293,31.592358 95.319122,25.231297 
	C93.807854,34.428982 98.250267,41.845047 100.730042,50.876522 
	C103.149902,45.109634 104.499649,40.058804 107.216408,35.901257 
	C110.333633,31.130878 113.933266,25.991491 118.606758,23.055025 
	C130.929688,15.312246 143.668335,23.377735 143.704544,36.259289 
	C134.542450,32.377213 124.244667,40.262947 115.287231,31.864725 
	C107.512497,42.731976 107.034592,54.862389 107.158096,68.559647 
	C116.604904,60.730507 127.260521,64.825714 137.353516,63.013683 
	C129.721664,62.806065 126.777405,57.224728 123.306519,52.082138 
	C121.124924,48.849792 118.369301,46.004875 115.886383,43.004494 
	C124.008759,37.518879 135.757141,38.841633 141.795975,46.148182 
	C146.806000,52.209957 145.688385,59.686977 138.359329,66.901352 
	C146.474274,69.915596 154.213791,73.006851 163.810287,67.507393 
	C156.433228,66.879333 154.386917,62.600376 152.845779,57.390743 
	C151.263458,52.042000 148.924316,46.917149 146.921432,41.707397 
	C156.414215,38.620277 168.524216,44.006001 170.965652,52.785915 
	C174.321945,64.855797 162.571198,77.575447 149.917786,75.370308 
	C142.402039,74.060524 134.994919,72.124023 127.476135,70.836067 
	C117.608124,69.145653 111.144836,73.904015 110.172752,83.807510 
	C109.621956,89.419106 109.800621,95.137283 110.081001,100.786095 
	C110.389320,106.997719 114.577309,110.311584 120.086456,111.787254 
	C124.553848,112.983887 129.245422,113.315117 133.782578,114.286858 
	C139.724335,115.559425 145.612015,117.084526 153.020599,118.859909 
	C149.659012,111.397011 146.981277,104.511513 143.486343,98.069328 
	C141.588623,94.571274 138.258514,92.234535 134.064941,95.926781 
	C133.378464,96.531181 132.161972,96.487190 131.283203,96.927856 
	C127.993599,98.577446 124.813698,100.467232 121.447533,101.933868 
	C119.712440,102.689857 116.994118,103.657410 115.944847,102.878807 
	C114.703209,101.957458 113.743378,98.625900 114.466377,97.433327 
	C117.884087,91.795891 122.014862,86.596237 125.665993,81.090996 
	C126.589737,79.698158 126.684662,77.755638 127.385704,75.265594 
	C136.511871,77.616646 147.309509,78.858444 157.135178,84.584709 
	C165.477890,89.446716 170.265289,94.633446 167.340729,105.147705 
	C165.497574,111.774101 165.509399,118.962662 165.107254,125.923203 
	C164.920517,129.155457 163.921432,130.234314 160.677521,130.155502 
	C152.682907,129.961273 144.680344,130.095383 136.680969,130.096024 
	C105.350098,130.098526 74.018761,130.019470 42.688885,130.197739 
	C38.426899,130.222000 37.057735,129.196564 36.819653,124.741135 
	C36.314930,115.295990 34.771931,105.909119 34.135334,96.465942 
	C34.002125,94.489937 35.420185,91.734520 37.015785,90.428680 
	C45.926472,83.136192 55.922676,78.137299 67.632019,76.997932 
	C70.498589,76.719002 73.277557,75.539810 77.118973,74.497047 
	C75.706375,76.455833 74.964996,77.483864 74.514534,78.108490 
	C78.820549,84.308952 82.808937,90.363205 87.146736,96.155807 
	C89.069893,98.723953 88.872810,100.805992 86.749695,102.673531 
	C84.451653,104.694946 82.590393,103.719315 80.275703,101.824181 
	C77.618713,99.648773 74.126823,98.480003 70.963135,96.945000 
	C70.080933,96.516968 69.029724,96.442490 68.136444,96.031197 
	C63.092567,93.708855 60.316544,94.122299 57.723507,99.149361 
	C54.572598,105.257973 52.302856,111.821098 49.597336,118.318649 
	C58.013130,116.750504 65.595413,115.337677 73.607681,113.865051 
z"/>
<path fill="#AAAAAE" opacity="1.000000" stroke="none" 
	d="
M114.000000,144.943405 
	C88.892868,144.943344 64.285736,144.943344 39.379585,144.943344 
	C38.868675,141.673355 38.418743,138.793655 37.894329,135.437256 
	C80.019699,135.437256 121.679298,135.437256 164.055115,135.437256 
	C163.672363,138.456223 163.309143,141.321289 162.849930,144.943466 
	C146.638062,144.943466 130.569031,144.943466 114.000000,144.943405 
z"/>
<path fill="#AFAFB1" opacity="1.000000" stroke="none" 
	d="
M106.280670,176.780075 
	C106.284081,172.325256 106.131348,168.331451 106.375031,164.362000 
	C106.461815,162.948273 107.272400,160.674576 108.178825,160.439941 
	C109.365196,160.132828 111.352112,161.102783 112.332146,162.145859 
	C115.595924,165.619629 118.563576,169.371613 121.644745,173.016953 
	C122.155617,172.945984 122.666489,172.875031 123.177361,172.804062 
	C123.177361,170.021484 122.898315,167.199188 123.286537,164.471878 
	C123.504387,162.941483 124.825996,161.568192 125.650299,160.124115 
	C126.396004,161.489029 127.726448,162.829269 127.785309,164.223190 
	C128.028793,169.988892 127.887428,175.770859 127.887428,182.447495 
	C119.337677,180.642319 117.573563,172.046036 110.980164,168.140350 
	C110.980164,171.574020 111.222206,174.509399 110.885185,177.376724 
	C110.696930,178.978394 109.701935,181.679504 108.803383,181.794281 
	C105.138969,182.262375 106.672066,179.081909 106.280670,176.780075 
z"/>
<path fill="#AEADB0" opacity="1.000000" stroke="none" 
	d="
M41.267509,182.033386 
	C40.209568,181.354691 39.122875,180.704758 39.109371,180.033234 
	C38.980038,173.602631 39.032036,167.168365 39.032036,160.102722 
	C43.136787,160.102722 46.750912,159.914703 50.338638,160.142487 
	C57.456421,160.594406 59.484478,164.837555 56.513607,169.188080 
	C57.447414,172.978149 59.344086,176.259445 58.399311,177.984787 
	C57.275345,180.037369 53.834091,181.321609 51.171505,181.898514 
	C48.156990,182.551666 44.892490,182.051056 41.267509,182.033386 
M47.433399,178.901550 
	C48.751514,178.829849 50.243492,179.120636 51.343052,178.593246 
	C52.670349,177.956635 53.664883,176.626236 54.803440,175.596130 
	C53.446892,174.702194 52.184155,173.303711 50.712280,173.030045 
	C48.378437,172.596130 45.904755,172.914337 43.525982,172.914337 
	C42.947388,176.341309 42.095509,179.185333 47.433399,178.901550 
M51.805843,164.396576 
	C49.098072,164.213562 46.390305,164.030533 42.689003,163.780365 
	C43.329319,166.198517 43.570553,169.041061 44.194923,169.127869 
	C46.690113,169.474792 49.343655,169.146332 51.838421,168.605591 
	C52.287754,168.508194 52.264854,166.232193 51.805843,164.396576 
z"/>
<path fill="#ACACAE" opacity="1.000000" stroke="none" 
	d="
M154.215744,168.219116 
	C154.332809,169.850433 154.341431,171.483551 155.119949,172.559647 
	C157.238174,175.487518 159.682098,178.179749 162.097870,181.086838 
	C159.054962,181.921158 159.054962,181.921158 148.786179,172.393570 
	C147.733383,174.736618 146.895065,176.708588 145.963547,178.635483 
	C145.406677,179.787308 144.703796,180.868546 144.066544,181.981506 
	C143.336731,180.784363 142.033127,179.613419 141.977020,178.385498 
	C141.741608,173.233017 141.776947,168.059525 141.975708,162.903854 
	C142.011398,161.977890 143.285339,161.099655 143.987595,160.199387 
	C144.655823,161.119675 145.777191,161.983185 145.901077,162.971695 
	C146.187973,165.261017 145.992310,167.610809 145.992310,170.338013 
	C151.933273,167.949753 153.802948,159.886734 160.932877,160.044067 
	C161.395096,160.534424 161.857330,161.024780 162.319550,161.515137 
	C159.699188,163.665695 157.078842,165.816269 154.215744,168.219116 
z"/>
<path fill="#ADACAF" opacity="1.000000" stroke="none" 
	d="
M72.356400,176.347931 
	C74.664261,171.508194 76.690681,166.943436 78.963943,162.505142 
	C80.619987,159.271881 83.349823,158.960419 84.913551,161.923569 
	C88.230003,168.208069 91.195900,174.677582 94.527634,181.527908 
	C88.664970,183.193375 87.672440,176.165680 82.027130,176.361542 
	C76.588455,176.550232 75.487801,182.691574 69.846603,181.903244 
	C70.772644,179.829849 71.476692,178.253494 72.356400,176.347931 
M85.459259,173.378159 
	C84.603424,170.868546 83.747589,168.358948 82.891747,165.849335 
	C82.405693,165.950607 81.919640,166.051880 81.433586,166.153152 
	C80.351913,168.445572 79.270241,170.737991 77.858246,173.730484 
	C80.661888,173.730484 82.718643,173.730484 85.459259,173.378159 
z"/>
<path fill="#F7F7F8" opacity="1.000000" stroke="none" 
	d="
M47.003227,178.899109 
	C42.095509,179.185333 42.947388,176.341309 43.525982,172.914337 
	C45.904755,172.914337 48.378437,172.596130 50.712280,173.030045 
	C52.184155,173.303711 53.446892,174.702194 54.803444,175.596130 
	C53.664883,176.626236 52.670349,177.956635 51.343052,178.593246 
	C50.243492,179.120636 48.751514,178.829849 47.003227,178.899109 
z"/>
<path fill="#F9F9FA" opacity="1.000000" stroke="none" 
	d="
M52.132912,164.679306 
	C52.264854,166.232193 52.287754,168.508194 51.838421,168.605591 
	C49.343655,169.146332 46.690113,169.474792 44.194923,169.127869 
	C43.570553,169.041061 43.329319,166.198517 42.689003,163.780365 
	C46.390305,164.030533 49.098072,164.213562 52.132912,164.679306 
z"/>
<path fill="#EEEEF0" opacity="1.000000" stroke="none" 
	d="
M85.117332,173.554321 
	C82.718643,173.730484 80.661888,173.730484 77.858246,173.730484 
	C79.270241,170.737991 80.351913,168.445572 81.433586,166.153152 
	C81.919640,166.051880 82.405693,165.950607 82.891747,165.849335 
	C83.747589,168.358948 84.603424,170.868546 85.117332,173.554321 
z"/>
</svg>