<svg version="1.1" id="Layer_1" xmlns="http://www.w3.org/2000/svg" x="0px" y="0px"
     width="100%" viewBox="0 0 1549 1549" enable-background="new 0 0 1549 1549" xml:space="preserve">
<path fill="#01162B" opacity="1.000000" stroke="none"
      d="
M1013.000000,1550.000000
	C675.333374,1550.000000 338.166779,1550.000000 1.000136,1550.000000
	C1.000090,1033.666870 1.000090,517.333618 1.000045,1.000344
	C517.333069,1.000229 1033.666138,1.000229 1549.999512,1.000115
	C1549.999634,517.333008 1549.999634,1033.666016 1549.999756,1549.999512
	C1371.166626,1550.000000 1192.333374,1550.000000 1013.000000,1550.000000
M452.605927,769.935547
	C456.444733,780.704834 460.232086,791.492859 464.133911,802.239258
	C470.653534,820.195679 477.246368,838.125488 483.839233,856.840637
	C496.977356,893.491577 510.162292,930.125916 523.169678,966.823181
	C524.278137,969.950562 526.080872,970.216980 528.770752,970.211914
	C557.572937,970.158020 586.375305,970.183167 615.177612,970.164368
	C616.437988,970.163513 617.698242,969.947021 619.163452,969.812073
	C618.943420,968.679688 618.850403,967.861877 618.623535,967.083130
	C614.125977,951.644470 609.657532,936.197205 605.092407,920.778503
	C598.599792,898.850098 592.033630,876.943420 585.337341,854.237000
	C583.248840,847.322388 581.166443,840.406006 579.070251,833.493652
	C576.062195,823.574280 572.974060,813.678467 570.048706,803.734802
	C566.646851,792.171631 563.383911,780.567627 560.036438,768.182190
	C557.329285,759.103394 554.748352,749.984619 551.889099,740.953979
	C545.660278,721.280640 539.289612,701.652283 532.992676,681.239502
	C532.376038,680.109375 531.546326,679.044617 531.176392,677.838806
	C528.144043,667.954285 525.272461,658.020325 522.207825,648.146057
	C516.905823,631.063171 511.500122,614.012390 506.123901,596.168213
	C499.998505,576.664246 493.920837,557.145081 487.731812,537.661316
	C483.206726,523.415833 478.535217,509.216949 473.937897,494.255524
	C461.596161,455.215851 449.254456,416.176178 436.989838,377.380432
	C395.063568,377.380432 353.586823,377.380432 311.635498,377.380432
	C313.579315,382.841156 315.337189,387.839264 317.135834,392.822662
	C329.216217,426.292786 341.305298,459.759827 353.431122,493.905731
	C354.023712,495.338348 354.616302,496.770966 355.221924,498.706543
	C355.335602,498.829865 355.449310,498.953156 355.675476,499.856079
	C360.864197,514.441467 365.993134,529.048401 371.256744,543.606689
	C377.818817,561.756348 384.491943,579.865784 391.109924,598.742737
	C398.074341,618.161560 405.016022,637.588684 412.013885,656.995422
	C415.025269,665.346802 418.153229,673.656128 421.220551,682.718384
	C431.645355,711.530823 442.070160,740.343201 452.605927,769.935547
M687.166260,799.359802
	C691.237793,788.137329 695.508850,776.982422 699.336060,765.677246
	C705.713745,746.838013 711.807129,727.902527 718.459656,708.421875
	C721.719727,697.871887 724.782471,687.255859 728.282654,676.786072
	C734.736938,657.479919 741.448059,638.259644 748.495972,618.438782
	C750.774048,611.798401 753.052124,605.157959 755.679688,597.498657
	C758.659058,606.054932 761.269287,613.551025 763.879333,621.824219
	C770.117310,640.956421 776.322510,660.099365 782.605652,679.216736
	C786.316528,690.507751 790.150757,701.758179 793.916138,713.803894
	C799.207275,730.049561 804.363586,746.340759 809.833496,762.525940
	C813.967834,774.759216 818.502930,786.857056 822.881226,799.777771
	C833.643005,827.678650 844.404724,855.579590 855.438599,884.180420
	C866.041199,911.316345 876.669067,938.442444 887.208740,965.602783
	C888.301697,968.419312 889.250854,970.313110 893.014648,970.289246
	C922.166504,970.104614 951.320435,970.130005 980.472839,970.269897
	C983.795105,970.285828 985.003784,968.975769 986.038452,966.092163
	C992.504395,948.071655 999.248657,930.151001 1005.715515,912.130859
	C1009.296753,902.151550 1012.518311,892.043091 1016.247803,881.313843
	C1026.729370,853.202576 1037.210938,825.091248 1048.069336,796.338745
	C1055.111938,777.135559 1062.184570,757.943237 1069.188232,738.725891
	C1075.104492,722.492188 1080.941040,706.229431 1087.203857,689.363281
	C1096.821777,663.175964 1106.475098,637.001648 1116.046631,610.797363
	C1123.906860,589.277710 1131.669678,567.722473 1139.826660,545.775879
	C1139.919556,545.252869 1140.012451,544.729919 1140.623047,543.757263
	C1140.856079,542.881653 1141.089111,542.006042 1141.758301,540.581238
	C1161.662231,486.261566 1181.566162,431.941895 1201.611572,377.236053
	C1159.394775,377.236053 1117.849609,377.236053 1076.232300,377.236053
	C1075.637695,378.985870 1075.086670,380.551941 1074.572021,382.129913
	C1063.120850,417.241486 1051.637817,452.342651 1040.240601,487.471741
	C1034.031616,506.609222 1027.969849,525.794434 1021.331604,545.455566
	C1013.270020,570.148376 1005.161560,594.825989 997.161438,619.538635
	C990.599487,639.808716 984.166321,660.120483 977.186768,681.001404
	C971.217712,699.265991 965.209473,717.517883 959.289978,735.798584
	C952.598145,756.464478 945.986023,777.156311 938.984009,798.378601
	C938.331299,800.093750 937.678589,801.808960 936.870972,803.931152
	C936.041626,802.566528 935.557190,801.769409 935.058411,800.208618
	C932.025696,791.062195 929.044373,781.898376 925.949890,772.772888
	C918.963257,752.169922 911.920776,731.585938 904.900024,710.340393
	C904.358643,709.554443 903.585999,708.841675 903.310608,707.971558
	C899.154663,694.839600 895.236633,681.629883 890.914795,668.553406
	C885.437927,651.981995 879.645447,635.514954 873.983398,618.234314
	C872.305847,613.179504 870.653503,608.116150 868.946533,603.071289
	C860.252197,577.375671 851.543762,551.684753 842.817993,525.252869
	C840.806274,519.872681 838.610901,514.552856 836.818848,509.100464
	C832.298462,495.346710 828.092041,481.489258 823.520691,467.752899
	C813.853943,438.705109 803.983704,409.724976 794.355957,380.664368
	C793.383484,377.729126 792.020203,376.934357 789.074951,376.950653
	C767.426392,377.070618 745.776184,377.094147 724.128174,376.932251
	C720.843445,376.907715 719.573364,378.034424 718.593567,381.033478
	C714.977234,392.101593 711.033875,403.062500 707.244568,414.074432
	C694.309143,451.665100 681.386902,489.260284 668.083923,527.435547
	C666.561829,531.836182 665.027222,536.232544 663.519836,540.638184
	C654.695068,566.429810 645.876648,592.223633 636.614563,618.580078
	C633.184998,628.452332 629.709656,638.308960 626.335388,648.200134
	C619.802795,667.349731 613.327148,686.518738 606.296082,706.189026
	C600.654602,722.515076 594.988953,738.832825 589.412354,755.181030
	C588.903442,756.672729 588.441162,758.507385 588.844055,759.931946
	C592.442993,772.656311 596.241211,785.324219 599.965210,798.794128
	C612.304688,840.678894 624.644165,882.563660 637.354065,925.705811
	C643.803101,909.414429 649.769531,894.439575 655.661926,879.435486
	C666.059265,852.960205 676.411377,826.467163 687.166260,799.359802
M252.549759,1101.912109
	C248.916229,1100.990234 245.282700,1100.068237 240.754074,1098.919189
	C243.633179,1124.671387 246.322922,1148.729980 249.020645,1172.859985
	C254.633621,1172.859985 259.717224,1172.859985 265.071655,1172.859985
	C266.330414,1161.737549 267.559204,1150.879883 268.787994,1140.022217
	C269.098969,1140.058716 269.409943,1140.095093 269.720886,1140.131592
	C270.899353,1150.992310 272.077820,1161.853027 273.273560,1172.872803
	C278.626190,1172.872803 283.540070,1172.872803 288.848755,1172.872803
	C291.564270,1148.580688 294.251923,1124.537720 296.975677,1100.171997
	C293.265869,1100.171997 290.186249,1100.171997 286.695282,1100.171997
	C284.907715,1117.304077 283.141754,1134.229248 281.375793,1151.154419
	C280.989532,1151.117065 280.603271,1151.079834 280.216980,1151.042480
	C278.536133,1134.074707 276.855316,1117.106934 275.175171,1100.146118
	C271.062561,1100.146118 267.611145,1100.146118 263.826141,1100.146118
	C262.162750,1117.516113 260.518433,1134.686646 258.874084,1151.857300
	C258.531494,1151.852051 258.188873,1151.846680 257.846252,1151.841309
	C256.136169,1135.486206 254.426041,1119.130981 252.549759,1101.912109
M486.970825,1136.516357
	C486.970825,1132.409912 486.970825,1128.303467 486.970825,1124.197021
	C488.364838,1125.769531 488.814484,1127.347290 489.231110,1128.933838
	C492.783600,1142.461426 496.268463,1156.007446 499.970612,1169.493774
	C500.354523,1170.892212 501.879425,1172.775024 503.118225,1172.982788
	C506.145874,1173.490723 509.316101,1173.148560 512.595642,1173.148560
	C512.595642,1148.466553 512.595642,1124.407593 512.595642,1100.160278
	C509.169434,1100.160278 506.073700,1100.160278 502.336029,1100.160278
	C502.336029,1113.233887 502.336029,1126.074829 502.336029,1138.915894
	C501.980804,1138.948242 501.625580,1138.980713 501.270355,1139.013184
	C497.879272,1126.054199 494.488159,1113.095215 491.134003,1100.277466
	C486.102783,1100.277466 481.536987,1100.277466 476.982605,1100.277466
	C476.982605,1124.701050 476.982605,1148.751587 476.982605,1172.794922
	C480.476440,1172.794922 483.544403,1172.794922 486.970612,1172.794922
	C486.970612,1160.787354 486.970612,1149.148804 486.970825,1136.516357
M739.592102,1173.165771
	C741.214355,1173.087769 742.836548,1173.009644 744.979858,1172.906616
	C744.979858,1156.470947 744.979858,1140.317017 744.979858,1124.163086
	C746.289062,1125.622559 746.780212,1127.158936 747.189880,1128.716675
	C750.747192,1142.245117 754.232544,1155.793091 757.920227,1169.285767
	C758.315613,1170.732544 759.716125,1172.771118 760.907043,1172.966064
	C764.069397,1173.483398 767.372192,1173.141846 770.665161,1173.141846
	C770.665161,1148.371094 770.665161,1124.438354 770.665161,1100.285645
	C767.203552,1100.285645 764.010986,1100.285645 760.120239,1100.285645
	C760.120239,1113.368530 760.120239,1126.083618 760.120239,1138.798706
	C756.863831,1129.833008 754.544983,1120.832642 752.193176,1111.841187
	C748.884766,1099.192627 748.874084,1099.192871 735.923279,1100.043823
	C735.630493,1100.063110 735.353943,1100.328491 735.010986,1100.510376
	C734.892944,1100.948608 734.653259,1101.424072 734.652649,1101.899902
	C734.623108,1124.565063 734.662292,1147.230591 734.549927,1169.895264
	C734.533630,1173.178833 736.315674,1173.326782 739.592102,1173.165771
M1307.666382,1128.775146
	C1308.055054,1122.859131 1308.953125,1116.918945 1308.672241,1111.034912
	C1308.445801,1106.290649 1305.476807,1101.972290 1300.661621,1101.250610
	C1292.268066,1099.992798 1283.706177,1099.858521 1275.114380,1099.246094
	C1275.114380,1124.722168 1275.114380,1148.812866 1275.114380,1172.787476
	C1283.175049,1172.787476 1291.012451,1173.344360 1298.701538,1172.518799
	C1301.861816,1172.179443 1305.521240,1169.474121 1307.533203,1166.783081
	C1313.350708,1159.001587 1310.566772,1140.681030 1303.173096,1134.367676
	C1304.541260,1132.727539 1305.910645,1131.086060 1307.666382,1128.775146
M367.934296,1127.500000
	C367.934296,1118.412476 367.934296,1109.324951 367.934296,1100.323364
	C363.624939,1100.323364 360.070374,1100.323364 356.003357,1100.323364
	C356.003357,1110.634399 356.003357,1120.540649 356.003357,1130.554199
	C351.438263,1130.554199 347.408417,1130.554199 342.906067,1130.554199
	C342.906067,1120.236328 342.906067,1110.319092 342.906067,1100.162109
	C339.003113,1100.162109 335.577728,1100.162109 331.885040,1100.162109
	C331.885040,1124.443359 331.885040,1148.521362 331.885040,1172.748047
	C335.661774,1172.748047 339.188843,1172.748047 343.223083,1172.748047
	C343.223083,1162.254761 343.223083,1152.172974 343.223083,1141.871582
	C347.645233,1141.871582 351.551361,1141.871582 356.177307,1141.871582
	C356.177307,1152.379150 356.177307,1162.591187 356.177307,1172.766602
	C360.463531,1172.766602 364.023590,1172.766602 367.934113,1172.766602
	C367.934113,1157.746338 367.934113,1143.123169 367.934296,1127.500000
M568.325012,1098.945923
	C555.434570,1099.082031 549.803589,1104.679688 549.748291,1117.590088
	C549.692017,1130.733887 549.633972,1143.879395 549.786377,1157.021729
	C549.914124,1168.042725 556.054016,1174.059814 566.848083,1174.153931
	C578.011292,1174.251465 584.452393,1168.329956 584.631897,1157.196655
	C584.854492,1143.390503 584.849304,1129.575684 584.635132,1115.769409
	C584.478516,1105.674072 579.321045,1100.324463 568.325012,1098.945923
M944.600098,1141.550293
	C953.267517,1141.638550 952.341125,1140.661499 952.391846,1149.271240
	C952.437683,1157.060913 952.401489,1164.851196 952.401489,1172.798584
	C956.562927,1172.798584 960.111206,1172.798584 963.725220,1172.798584
	C963.725220,1148.381470 963.725220,1124.334229 963.725220,1100.130493
	C959.926392,1100.130493 956.483704,1100.130493 952.344116,1100.130493
	C952.344116,1110.387207 952.344116,1120.443237 952.344116,1130.515747
	C947.608032,1130.515747 943.586182,1130.515747 939.131226,1130.515747
	C939.131226,1120.141602 939.131226,1110.205688 939.131226,1100.201904
	C935.262817,1100.201904 931.839478,1100.201904 928.223511,1100.201904
	C928.223511,1124.545898 928.223511,1148.594116 928.223511,1172.828857
	C931.929688,1172.828857 935.317749,1172.828857 939.221130,1172.828857
	C939.221130,1163.712402 939.346619,1154.921387 939.157959,1146.137085
	C939.084900,1142.734619 940.073853,1141.057495 944.600098,1141.550293
M1215.503540,1160.591553
	C1215.199463,1157.964478 1214.645386,1155.338745 1214.632202,1152.710205
	C1214.553833,1137.060791 1214.600464,1121.410522 1214.604980,1105.760620
	C1214.605469,1103.972412 1214.604980,1102.184082 1214.604980,1100.313477
	C1210.438843,1100.313477 1206.902344,1100.313477 1203.123047,1100.313477
	C1203.123047,1120.175049 1202.825928,1139.639282 1203.250977,1159.087769
	C1203.456909,1168.505859 1209.770630,1173.824341 1219.202515,1174.130737
	C1231.157593,1174.519165 1237.673950,1168.433716 1237.752808,1156.446167
	C1237.867798,1138.965698 1237.795166,1121.483765 1237.770264,1104.002441
	C1237.768433,1102.737305 1237.505127,1101.472534 1237.356201,1100.142334
	C1233.687866,1100.142334 1230.401978,1100.142334 1226.573853,1100.142334
	C1226.573853,1102.172729 1226.573853,1103.971313 1226.573853,1105.769897
	C1226.574219,1122.418701 1226.709839,1139.069946 1226.425049,1155.713867
	C1226.383545,1158.140625 1224.916138,1161.460815 1223.027954,1162.645508
	C1221.537964,1163.580322 1218.387085,1161.868042 1215.503540,1160.591553
M862.712219,1170.899902
	C874.401672,1177.974365 888.915588,1173.928345 890.547607,1162.270752
	C891.886902,1152.703613 890.820557,1142.799683 890.820557,1132.927002
	C885.644470,1132.927002 880.465881,1132.927002 875.359619,1132.927002
	C875.359619,1136.500610 875.359619,1139.589478 875.359619,1142.616089
	C877.124878,1142.960327 878.536377,1143.235596 880.234070,1143.566772
	C880.234070,1148.269043 880.286987,1152.745850 880.217590,1157.220581
	C880.160400,1160.910645 878.399536,1163.357910 874.540649,1163.461670
	C870.700073,1163.564697 868.547913,1161.237671 868.519165,1157.564087
	C868.409546,1143.576172 868.431396,1129.586060 868.572510,1115.598389
	C868.609558,1111.932373 870.688110,1109.608276 874.574463,1109.706543
	C878.530273,1109.806519 880.077637,1112.388306 880.201294,1115.994019
	C880.300720,1118.892578 880.221436,1121.797241 880.221436,1124.649658
	C884.493103,1124.649658 887.749451,1124.649658 891.412598,1124.649658
	C891.412598,1121.040039 891.658264,1117.714722 891.367432,1114.437012
	C890.421143,1103.770752 883.910706,1098.463135 872.671021,1098.955200
	C862.811707,1099.387085 857.023132,1105.486328 856.945862,1115.864380
	C856.842896,1129.696411 856.923096,1143.529785 856.929260,1157.362671
	C856.931519,1162.407349 858.394592,1166.872559 862.712219,1170.899902
M1082.906616,1163.130127
	C1081.602905,1161.020508 1079.224731,1158.937866 1079.170898,1156.796753
	C1078.831543,1143.310059 1078.951782,1129.810181 1079.051880,1116.315430
	C1079.079590,1112.593140 1080.632690,1109.740601 1084.919800,1109.724854
	C1089.207153,1109.709106 1090.650513,1112.580688 1090.871948,1116.276367
	C1091.035767,1119.011108 1090.904175,1121.763794 1090.904175,1124.433838
	C1095.072876,1124.433838 1098.314453,1124.433838 1101.783813,1124.433838
	C1101.783813,1120.432617 1102.184448,1116.745728 1101.707153,1113.176392
	C1100.382080,1103.268311 1094.156616,1098.573975 1083.433716,1098.942261
	C1074.019775,1099.265747 1067.948242,1104.543579 1067.655273,1114.150513
	C1067.198730,1129.128174 1067.192627,1144.142700 1067.690063,1159.118408
	C1068.011353,1168.792358 1073.995605,1173.856689 1083.583252,1174.123657
	C1094.269531,1174.421265 1100.262695,1170.065308 1101.597046,1160.295166
	C1102.215088,1155.769531 1101.702515,1151.089600 1101.702515,1146.258301
	C1098.031616,1146.258301 1094.674194,1146.258301 1090.932007,1146.258301
	C1090.932007,1149.968018 1091.053223,1153.283569 1090.902466,1156.586792
	C1090.698730,1161.051880 1088.804565,1163.929810 1082.906616,1163.130127
M438.257385,1115.868042
	C439.739441,1110.702148 441.221497,1105.536255 442.730927,1100.274902
	C431.821777,1099.257202 431.804535,1099.252686 429.211517,1109.068970
	C428.064056,1113.412964 427.033783,1117.787842 425.889954,1122.132812
	C425.170441,1124.865967 424.339081,1127.569702 423.557892,1130.286621
	C421.953125,1128.488647 421.441895,1126.790405 420.992767,1125.075806
	C419.095581,1117.833374 417.101166,1110.613037 415.393311,1103.325806
	C414.783691,1100.724609 413.652069,1099.685547 410.987885,1099.869507
	C408.216797,1100.060913 405.422241,1099.912109 402.451263,1099.912109
	C407.713135,1124.493530 420.573517,1146.917969 416.425537,1172.837158
	C420.871460,1172.837158 424.258026,1172.837158 428.148804,1172.837158
	C428.148804,1169.890869 428.040222,1167.261353 428.170380,1164.643677
	C428.482727,1158.361572 428.099487,1151.902100 429.469635,1145.847534
	C431.704498,1135.971680 435.112946,1126.361450 438.257385,1115.868042
M624.623657,1110.422485
	C626.246338,1110.506958 627.869019,1110.591553 630.095215,1110.707520
	C630.095215,1131.594971 630.095215,1152.152222 630.095215,1172.902832
	C634.147827,1172.902832 637.574402,1172.902832 641.632446,1172.902832
	C641.632446,1170.862061 641.632141,1169.071289 641.632507,1167.280518
	C641.635742,1151.456299 641.641541,1135.631958 641.641479,1119.807739
	C641.641479,1110.840576 641.637512,1110.847412 650.799194,1110.409912
	C651.603394,1110.371338 652.399597,1110.164673 653.393799,1110.004883
	C653.393799,1106.608521 653.393799,1103.397095 653.393799,1100.015137
	C641.486328,1100.015137 629.926453,1100.015137 618.394287,1100.015137
	C618.394287,1103.588379 618.394287,1106.814453 618.394287,1110.420654
	C620.400574,1110.420654 622.048889,1110.420654 624.623657,1110.422485
M1138.343140,1101.942505
	C1138.343140,1125.561646 1138.343140,1149.180908 1138.343140,1173.092529
	C1148.743652,1173.092529 1158.627075,1173.092529 1168.651367,1173.092529
	C1168.651367,1169.590942 1168.651367,1166.465210 1168.651367,1162.588013
	C1162.407104,1162.588013 1156.366821,1162.588013 1149.689453,1162.588013
	C1149.689453,1141.296143 1149.689453,1120.747192 1149.689453,1099.371216
	C1145.453247,1100.002319 1141.975708,1100.520264 1138.343140,1101.942505
M1022.105591,1159.491821
	C1022.105591,1143.277466 1022.105591,1127.063110 1022.105591,1110.275635
	C1026.488403,1110.275635 1030.060791,1110.275635 1033.768799,1110.275635
	C1033.768799,1106.484497 1033.768799,1103.290771 1033.768799,1100.099609
	C1021.966919,1100.099609 1010.581055,1100.099609 999.178345,1100.099609
	C999.178345,1103.668823 999.178345,1106.859131 999.178345,1110.113281
	C1003.235229,1110.309326 1006.822876,1110.482544 1010.975830,1110.683228
	C1010.975830,1131.711548 1010.975830,1152.240723 1010.975830,1172.776611
	C1014.970520,1172.776611 1018.352661,1172.776611 1022.104736,1172.776611
	C1022.104736,1168.421997 1022.104736,1164.455200 1022.105591,1159.491821
M808.863892,1109.535400
	C808.863892,1130.608032 808.863892,1151.680664 808.863892,1172.779053
	C812.999023,1172.779053 816.385803,1172.779053 819.805359,1172.779053
	C819.805359,1148.357300 819.805359,1124.324707 819.805359,1099.906982
	C817.791260,1099.906982 816.153625,1099.906982 814.515991,1099.906982
	C812.757690,1099.906982 810.999329,1099.906982 808.863403,1099.906982
	C808.863403,1103.272949 808.863403,1105.910034 808.863892,1109.535400
z"/>
  <path fill="#F3D074" opacity="1.000000" stroke="none"
        d="
M1140.105347,544.206909
	C1140.012451,544.729919 1139.919556,545.252869 1139.242065,545.992371
	C1134.502930,547.059631 1130.334473,548.778503 1126.370605,545.448181
	C1125.731323,544.911072 1124.449341,545.030212 1123.464233,545.029114
	C1089.590088,544.991760 1055.715820,544.976562 1021.841675,544.958130
	C1027.969849,525.794434 1034.031616,506.609222 1040.240601,487.471741
	C1051.637817,452.342651 1063.120850,417.241486 1074.572021,382.129913
	C1075.086670,380.551941 1075.637695,378.985870 1076.232300,377.236053
	C1117.849609,377.236053 1159.394775,377.236053 1201.611572,377.236053
	C1181.566162,431.941895 1161.662231,486.261566 1141.236084,540.891479
	C1140.511108,542.203430 1140.308228,543.205139 1140.105347,544.206909
z"/>
  <path fill="#EAC76E" opacity="1.000000" stroke="none"
        d="
M763.879517,621.047180
	C761.269287,613.551025 758.659058,606.054932 755.679688,597.498657
	C753.052124,605.157959 750.774048,611.798401 747.802002,618.720154
	C712.866455,619.000977 678.624878,619.020569 644.383484,618.957642
	C641.940491,618.953186 639.498596,618.344421 637.056152,618.016724
	C645.876648,592.223633 654.695068,566.429810 663.519836,540.638184
	C665.027222,536.232544 666.561829,531.836182 668.718018,527.232422
	C672.306946,527.352905 675.261475,527.955261 678.216614,527.958557
	C729.737793,528.015991 781.259155,528.037415 832.780151,527.913818
	C836.135071,527.905762 839.486938,526.661438 842.840271,525.992188
	C851.543762,551.684753 860.252197,577.375671 868.946533,603.071289
	C870.653503,608.116150 872.305847,613.179504 873.576782,618.698181
	C870.535583,619.441345 867.901428,619.958374 865.266235,619.963562
	C835.936340,620.021301 806.606201,619.956055 777.276428,620.046753
	C772.809753,620.060547 768.345093,620.698120 763.879517,621.047180
z"/>
  <path fill="#F3D074" opacity="1.000000" stroke="none"
        d="
M842.829102,525.622559
	C839.486938,526.661438 836.135071,527.905762 832.780151,527.913818
	C781.259155,528.037415 729.737793,528.015991 678.216614,527.958557
	C675.261475,527.955261 672.306946,527.352905 668.905884,526.941528
	C681.386902,489.260284 694.309143,451.665100 707.244568,414.074432
	C711.033875,403.062500 714.977234,392.101593 718.593567,381.033478
	C719.573364,378.034424 720.843445,376.907715 724.128174,376.932251
	C745.776184,377.094147 767.426392,377.070618 789.074951,376.950653
	C792.020203,376.934357 793.383484,377.729126 794.355957,380.664368
	C803.983704,409.724976 813.853943,438.705109 823.520691,467.752899
	C828.092041,481.489258 832.298462,495.346710 836.818848,509.100464
	C838.610901,514.552856 840.806274,519.872681 842.829102,525.622559
z"/>
  <path fill="#CCAD5C" opacity="1.000000" stroke="none"
        d="
M1047.692505,796.979858
	C1037.210938,825.091248 1026.729370,853.202576 1015.707520,881.678101
	C1007.289917,887.969910 998.134827,885.908081 989.410828,885.941528
	C953.139221,886.080627 916.866577,886.066284 880.594849,885.945923
	C873.048279,885.920898 865.260742,887.421570 858.095276,883.417358
	C857.360291,883.006714 856.154053,883.439209 855.166504,883.480469
	C844.404724,855.579590 833.643005,827.678650 823.296021,799.391479
	C827.159424,799.251648 831.927002,795.713501 832.968994,803.824280
	C838.246216,795.135315 845.750732,798.196899 852.278137,798.107117
	C873.218872,797.818970 894.166077,797.969727 915.110657,798.025330
	C919.319824,798.036560 923.508240,797.372803 927.438416,800.449280
	C929.101013,801.750671 932.476074,800.864319 935.072754,800.972290
	C935.557190,801.769409 936.041626,802.566528 936.870972,803.931152
	C937.678589,801.808960 938.331299,800.093750 939.611084,798.132568
	C947.795776,797.257690 955.355042,796.076782 962.910767,796.098328
	C991.171997,796.179016 1019.432007,796.653259 1047.692505,796.979858
z"/>
  <path fill="#E6C46C" opacity="1.000000" stroke="none"
        d="
M1021.586670,545.206848
	C1055.715820,544.976562 1089.590088,544.991760 1123.464233,545.029114
	C1124.449341,545.030212 1125.731323,544.911072 1126.370605,545.448181
	C1130.334473,548.778503 1134.502930,547.059631 1139.066528,546.195923
	C1131.669678,567.722473 1123.906860,589.277710 1116.046631,610.797363
	C1106.475098,637.001648 1096.821777,663.175964 1086.626953,689.641235
	C1082.268799,689.946045 1078.487671,689.995300 1074.706421,689.996155
	C1045.926514,690.002563 1017.146423,690.041931 988.366760,689.947937
	C984.627441,689.935791 980.890320,689.222229 977.675903,688.888000
	C977.675903,685.681091 977.675903,683.047363 977.675903,680.413696
	C984.166321,660.120483 990.599487,639.808716 997.161438,619.538635
	C1005.161560,594.825989 1013.270020,570.148376 1021.586670,545.206848
z"/>
  <path fill="#F5D275" opacity="1.000000" stroke="none"
        d="
M355.562988,499.076477
	C355.449310,498.953156 355.335602,498.829865 355.525330,498.246765
	C357.541779,494.917267 356.160126,493.701843 353.391571,493.227844
	C341.305298,459.759827 329.216217,426.292786 317.135834,392.822662
	C315.337189,387.839264 313.579315,382.841156 311.635498,377.380432
	C353.586823,377.380432 395.063568,377.380432 436.989838,377.380432
	C449.254456,416.176178 461.596161,455.215851 473.494141,494.626404
	C464.601624,495.331543 456.147797,495.570435 447.704956,496.017090
	C417.010406,497.640961 386.088928,492.427643 355.562988,499.076477
z"/>
  <path fill="#ECCA70" opacity="1.000000" stroke="none"
        d="
M355.619232,499.466278
	C386.088928,492.427643 417.010406,497.640961 447.704956,496.017090
	C456.147797,495.570435 464.601624,495.331543 473.489685,494.997314
	C478.535217,509.216949 483.206726,523.415833 487.731812,537.661316
	C493.920837,557.145081 499.998505,576.664246 505.737427,596.722534
	C503.052979,597.517883 500.755249,597.966248 498.457031,597.968933
	C462.677124,598.010803 426.897095,597.995056 391.117126,597.992615
	C384.491943,579.865784 377.818817,561.756348 371.256744,543.606689
	C365.993134,529.048401 360.864197,514.441467 355.619232,499.466278
z"/>
  <path fill="#D6B663" opacity="1.000000" stroke="none"
        d="
M977.431335,680.707520
	C977.675903,683.047363 977.675903,685.681091 977.675903,688.888000
	C980.890320,689.222229 984.627441,689.935791 988.366760,689.947937
	C1017.146423,690.041931 1045.926514,690.002563 1074.706421,689.996155
	C1078.487671,689.995300 1082.268799,689.946045 1086.431519,689.949402
	C1080.941040,706.229431 1075.104492,722.492188 1069.188232,738.725891
	C1062.184570,757.943237 1055.111938,777.135559 1047.880859,796.659302
	C1019.432007,796.653259 991.171997,796.179016 962.910767,796.098328
	C955.355042,796.076782 947.795776,797.257690 939.788696,797.861694
	C945.986023,777.156311 952.598145,756.464478 959.289978,735.798584
	C965.209473,717.517883 971.217712,699.265991 977.431335,680.707520
z"/>
  <path fill="#C4A558" opacity="1.000000" stroke="none"
        d="
M585.498901,855.027466
	C592.033630,876.943420 598.599792,898.850098 605.092407,920.778503
	C609.657532,936.197205 614.125977,951.644470 618.623535,967.083130
	C618.850403,967.861877 618.943420,968.679688 619.163452,969.812073
	C617.698242,969.947021 616.437988,970.163513 615.177612,970.164368
	C586.375305,970.183167 557.572937,970.158020 528.770752,970.211914
	C526.080872,970.216980 524.278137,969.950562 523.169678,966.823181
	C510.162292,930.125916 496.977356,893.491577 484.268921,856.437622
	C487.997467,855.690186 491.295593,855.054199 494.595184,855.046753
	C524.896301,854.978271 555.197571,855.018677 585.498901,855.027466
z"/>
  <path fill="#C1A457" opacity="1.000000" stroke="none"
        d="
M855.302551,883.830444
	C856.154053,883.439209 857.360291,883.006714 858.095276,883.417358
	C865.260742,887.421570 873.048279,885.920898 880.594849,885.945923
	C916.866577,886.066284 953.139221,886.080627 989.410828,885.941528
	C998.134827,885.908081 1007.289917,887.969910 1015.534668,882.017578
	C1012.518311,892.043091 1009.296753,902.151550 1005.715515,912.130859
	C999.248657,930.151001 992.504395,948.071655 986.038452,966.092163
	C985.003784,968.975769 983.795105,970.285828 980.472839,970.269897
	C951.320435,970.130005 922.166504,970.104614 893.014648,970.289246
	C889.250854,970.313110 888.301697,968.419312 887.208740,965.602783
	C876.669067,938.442444 866.041199,911.316345 855.302551,883.830444
z"/>
  <path fill="#E3C16A" opacity="1.000000" stroke="none"
        d="
M391.113525,598.367676
	C426.897095,597.995056 462.677124,598.010803 498.457031,597.968933
	C500.755249,597.966248 503.052979,597.517883 505.744415,597.112488
	C511.500122,614.012390 516.905823,631.063171 522.207825,648.146057
	C525.272461,658.020325 528.144043,667.954285 531.176392,677.838806
	C531.546326,679.044617 532.376038,680.109375 532.604248,681.625061
	C530.918396,682.774841 528.432373,683.690979 528.507690,684.279785
	C529.241516,690.022461 525.226929,688.971191 522.089844,688.978455
	C503.296753,689.021973 484.503510,689.000549 465.710297,688.999756
	C456.563171,688.999390 447.399628,689.313354 438.276855,688.840942
	C434.563751,688.648682 429.956146,687.723572 427.571960,685.325745
	C425.503632,683.245605 424.072083,681.819702 421.228241,681.984558
	C418.153229,673.656128 415.025269,665.346802 412.013885,656.995422
	C405.016022,637.588684 398.074341,618.161560 391.113525,598.367676
z"/>
  <path fill="#E0BE68" opacity="1.000000" stroke="none"
        d="
M763.879395,621.435669
	C768.345093,620.698120 772.809753,620.060547 777.276428,620.046753
	C806.606201,619.956055 835.936340,620.021301 865.266235,619.963562
	C867.901428,619.958374 870.535583,619.441345 873.579590,619.082458
	C879.645447,635.514954 885.437927,651.981995 890.914795,668.553406
	C895.236633,681.629883 899.154663,694.839600 903.310608,707.971558
	C903.585999,708.841675 904.358643,709.554443 904.527893,710.742554
	C902.375427,711.244324 900.579224,711.544250 898.817932,711.404358
	C894.214233,711.038879 889.600037,709.894043 885.035522,710.094910
	C854.677124,711.431091 824.118713,706.658020 793.929504,713.026855
	C790.150757,701.758179 786.316528,690.507751 782.605652,679.216736
	C776.322510,660.099365 770.117310,640.956421 763.879395,621.435669
z"/>
  <path fill="#D6B663" opacity="1.000000" stroke="none"
        d="
M793.922852,713.415405
	C824.118713,706.658020 854.677124,711.431091 885.035522,710.094910
	C889.600037,709.894043 894.214233,711.038879 898.817932,711.404358
	C900.579224,711.544250 902.375427,711.244324 904.528442,711.069519
	C911.920776,731.585938 918.963257,752.169922 925.949890,772.772888
	C929.044373,781.898376 932.025696,791.062195 935.065552,800.590454
	C932.476074,800.864319 929.101013,801.750671 927.438416,800.449280
	C923.508240,797.372803 919.319824,798.036560 915.110657,798.025330
	C894.166077,797.969727 873.218872,797.818970 852.278137,798.107117
	C845.750732,798.196899 838.246216,795.135315 832.968994,803.824280
	C831.927002,795.713501 827.159424,799.251648 823.285217,799.010193
	C818.502930,786.857056 813.967834,774.759216 809.833496,762.525940
	C804.363586,746.340759 799.207275,730.049561 793.922852,713.415405
z"/>
  <path fill="#E1BF68" opacity="1.000000" stroke="none"
        d="
M636.835327,618.298340
	C639.498596,618.344421 641.940491,618.953186 644.383484,618.957642
	C678.624878,619.020569 712.866455,619.000977 747.580078,619.002563
	C741.448059,638.259644 734.736938,657.479919 728.282654,676.786072
	C724.782471,687.255859 721.719727,697.871887 717.855469,708.639160
	C713.188171,708.237671 709.127563,707.102356 705.061401,707.082275
	C674.526550,706.931213 643.990479,707.027283 613.455078,706.943176
	C611.244873,706.937073 609.036926,706.119812 606.827881,705.679688
	C613.327148,686.518738 619.802795,667.349731 626.335388,648.200134
	C629.709656,638.308960 633.184998,628.452332 636.835327,618.298340
z"/>
  <path fill="#D6B663" opacity="1.000000" stroke="none"
        d="
M606.562012,705.934387
	C609.036926,706.119812 611.244873,706.937073 613.455078,706.943176
	C643.990479,707.027283 674.526550,706.931213 705.061401,707.082275
	C709.127563,707.102356 713.188171,708.237671 717.635742,708.932007
	C711.807129,727.902527 705.713745,746.838013 699.336060,765.677246
	C695.508850,776.982422 691.237793,788.137329 686.601807,799.642883
	C679.533691,796.897827 672.637817,796.895874 665.642578,796.949768
	C646.031433,797.100830 626.418213,796.969666 606.806213,797.046753
	C604.529846,797.055664 602.255859,797.673340 599.980774,798.008789
	C596.241211,785.324219 592.442993,772.656311 588.844055,759.931946
	C588.441162,758.507385 588.903442,756.672729 589.412354,755.181030
	C594.988953,738.832825 600.654602,722.515076 606.562012,705.934387
z"/>
  <path fill="#D0B05F" opacity="1.000000" stroke="none"
        d="
M585.418091,854.632202
	C555.197571,855.018677 524.896301,854.978271 494.595184,855.046753
	C491.295593,855.054199 487.997467,855.690186 484.253510,856.050598
	C477.246368,838.125488 470.653534,820.195679 464.133911,802.239258
	C460.232086,791.492859 456.444733,780.704834 452.971100,769.496887
	C457.138367,769.038818 460.940430,769.003235 464.742523,769.002563
	C491.905243,768.997681 519.067932,769.000854 546.230652,768.999207
	C550.840637,768.998901 555.450684,768.987610 560.060669,768.981384
	C563.383911,780.567627 566.646851,792.171631 570.048706,803.734802
	C572.974060,813.678467 576.062195,823.574280 579.070251,833.493652
	C581.166443,840.406006 583.248840,847.322388 585.418091,854.632202
z"/>
  <path fill="#D9B964" opacity="1.000000" stroke="none"
        d="
M560.048584,768.581787
	C555.450684,768.987610 550.840637,768.998901 546.230652,768.999207
	C519.067932,769.000854 491.905243,768.997681 464.742523,769.002563
	C460.940430,769.003235 457.138367,769.038818 452.915588,769.106934
	C442.070160,740.343201 431.645355,711.530823 421.224396,682.351440
	C424.072083,681.819702 425.503632,683.245605 427.571960,685.325745
	C429.956146,687.723572 434.563751,688.648682 438.276855,688.840942
	C447.399628,689.313354 456.563171,688.999390 465.710297,688.999756
	C484.503510,689.000549 503.296753,689.021973 522.089844,688.978455
	C525.226929,688.971191 529.241516,690.022461 528.507690,684.279785
	C528.432373,683.690979 530.918396,682.774841 532.596436,682.008057
	C539.289612,701.652283 545.660278,721.280640 551.889099,740.953979
	C554.748352,749.984619 557.329285,759.103394 560.048584,768.581787
z"/>
  <path fill="#CAAB5B" opacity="1.000000" stroke="none"
        d="
M599.973022,798.401489
	C602.255859,797.673340 604.529846,797.055664 606.806213,797.046753
	C626.418213,796.969666 646.031433,797.100830 665.642578,796.949768
	C672.637817,796.895874 679.533691,796.897827 686.409912,799.953735
	C676.411377,826.467163 666.059265,852.960205 655.661926,879.435486
	C649.769531,894.439575 643.803101,909.414429 637.354065,925.705811
	C624.644165,882.563660 612.304688,840.678894 599.973022,798.401489
z"/>
  <path fill="#AC914B" opacity="1.000000" stroke="none"
        d="
M252.632843,1102.343994
	C254.426041,1119.130981 256.136169,1135.486206 257.846252,1151.841309
	C258.188873,1151.846680 258.531494,1151.852051 258.874084,1151.857300
	C260.518433,1134.686646 262.162750,1117.516113 263.826141,1100.146118
	C267.611145,1100.146118 271.062561,1100.146118 275.175171,1100.146118
	C276.855316,1117.106934 278.536133,1134.074707 280.216980,1151.042480
	C280.603271,1151.079834 280.989532,1151.117065 281.375793,1151.154419
	C283.141754,1134.229248 284.907715,1117.304077 286.695282,1100.171997
	C290.186249,1100.171997 293.265869,1100.171997 296.975677,1100.171997
	C294.251923,1124.537720 291.564270,1148.580688 288.848755,1172.872803
	C283.540070,1172.872803 278.626190,1172.872803 273.273560,1172.872803
	C272.077820,1161.853027 270.899353,1150.992310 269.720886,1140.131592
	C269.409943,1140.095093 269.098969,1140.058716 268.787994,1140.022217
	C267.559204,1150.879883 266.330414,1161.737549 265.071655,1172.859985
	C259.717224,1172.859985 254.633621,1172.859985 249.020645,1172.859985
	C246.322922,1148.729980 243.633179,1124.671387 240.754074,1098.919189
	C245.282700,1100.068237 248.916229,1100.990234 252.632843,1102.343994
z"/>
  <path fill="#AC914B" opacity="1.000000" stroke="none"
        d="
M486.970703,1137.013428
	C486.970612,1149.148804 486.970612,1160.787354 486.970612,1172.794922
	C483.544403,1172.794922 480.476440,1172.794922 476.982605,1172.794922
	C476.982605,1148.751587 476.982605,1124.701050 476.982605,1100.277466
	C481.536987,1100.277466 486.102783,1100.277466 491.134003,1100.277466
	C494.488159,1113.095215 497.879272,1126.054199 501.270355,1139.013184
	C501.625580,1138.980713 501.980804,1138.948242 502.336029,1138.915894
	C502.336029,1126.074829 502.336029,1113.233887 502.336029,1100.160278
	C506.073700,1100.160278 509.169434,1100.160278 512.595642,1100.160278
	C512.595642,1124.407593 512.595642,1148.466553 512.595642,1173.148560
	C509.316101,1173.148560 506.145874,1173.490723 503.118225,1172.982788
	C501.879425,1172.775024 500.354523,1170.892212 499.970612,1169.493774
	C496.268463,1156.007446 492.783600,1142.461426 489.231110,1128.933838
	C488.814484,1127.347290 488.364838,1125.769531 486.970825,1124.197021
	C486.970825,1128.303467 486.970825,1132.409912 486.970703,1137.013428
z"/>
  <path fill="#AC914B" opacity="1.000000" stroke="none"
        d="
M739.135193,1173.165405
	C736.315674,1173.326782 734.533630,1173.178833 734.549927,1169.895264
	C734.662292,1147.230591 734.623108,1124.565063 734.652649,1101.899902
	C734.653259,1101.424072 734.892944,1100.948608 735.010986,1100.510376
	C735.353943,1100.328491 735.630493,1100.063110 735.923279,1100.043823
	C748.874084,1099.192871 748.884766,1099.192627 752.193176,1111.841187
	C754.544983,1120.832642 756.863831,1129.833008 760.120239,1138.798706
	C760.120239,1126.083618 760.120239,1113.368530 760.120239,1100.285645
	C764.010986,1100.285645 767.203552,1100.285645 770.665161,1100.285645
	C770.665161,1124.438354 770.665161,1148.371094 770.665161,1173.141846
	C767.372192,1173.141846 764.069397,1173.483398 760.907043,1172.966064
	C759.716125,1172.771118 758.315613,1170.732544 757.920227,1169.285767
	C754.232544,1155.793091 750.747192,1142.245117 747.189880,1128.716675
	C746.780212,1127.158936 746.289062,1125.622559 744.979858,1124.163086
	C744.979858,1140.317017 744.979858,1156.470947 744.979858,1172.906616
	C742.836548,1173.009644 741.214355,1173.087769 739.135193,1173.165405
z"/>
  <path fill="#AC914B" opacity="1.000000" stroke="none"
        d="
M1307.473145,1129.109863
	C1305.910645,1131.086060 1304.541260,1132.727539 1303.173096,1134.367676
	C1310.566772,1140.681030 1313.350708,1159.001587 1307.533203,1166.783081
	C1305.521240,1169.474121 1301.861816,1172.179443 1298.701538,1172.518799
	C1291.012451,1173.344360 1283.175049,1172.787476 1275.114380,1172.787476
	C1275.114380,1148.812866 1275.114380,1124.722168 1275.114380,1099.246094
	C1283.706177,1099.858521 1292.268066,1099.992798 1300.661621,1101.250610
	C1305.476807,1101.972290 1308.445801,1106.290649 1308.672241,1111.034912
	C1308.953125,1116.918945 1308.055054,1122.859131 1307.473145,1129.109863
M1286.208496,1160.935059
	C1290.472290,1164.755127 1297.550415,1163.038818 1298.585083,1157.791870
	C1299.060791,1155.379883 1298.967773,1152.829468 1298.921631,1150.345703
	C1298.755737,1141.418091 1295.270020,1138.870728 1286.160645,1141.275024
	C1286.160645,1147.461792 1286.160645,1153.749634 1286.208496,1160.935059
M1296.233887,1112.408325
	C1293.129395,1111.549438 1290.024780,1110.690552 1286.595459,1109.741821
	C1286.595459,1117.286011 1286.595459,1123.442017 1286.595459,1129.539917
	C1295.510742,1130.377319 1297.991089,1128.218994 1297.812012,1119.860107
	C1297.763550,1117.588867 1297.083740,1115.331177 1296.233887,1112.408325
z"/>
  <path fill="#AC914B" opacity="1.000000" stroke="none"
        d="
M367.934204,1128.000000
	C367.934113,1143.123169 367.934113,1157.746338 367.934113,1172.766602
	C364.023590,1172.766602 360.463531,1172.766602 356.177307,1172.766602
	C356.177307,1162.591187 356.177307,1152.379150 356.177307,1141.871582
	C351.551361,1141.871582 347.645233,1141.871582 343.223083,1141.871582
	C343.223083,1152.172974 343.223083,1162.254761 343.223083,1172.748047
	C339.188843,1172.748047 335.661774,1172.748047 331.885040,1172.748047
	C331.885040,1148.521362 331.885040,1124.443359 331.885040,1100.162109
	C335.577728,1100.162109 339.003113,1100.162109 342.906067,1100.162109
	C342.906067,1110.319092 342.906067,1120.236328 342.906067,1130.554199
	C347.408417,1130.554199 351.438263,1130.554199 356.003357,1130.554199
	C356.003357,1120.540649 356.003357,1110.634399 356.003357,1100.323364
	C360.070374,1100.323364 363.624939,1100.323364 367.934296,1100.323364
	C367.934296,1109.324951 367.934296,1118.412476 367.934204,1128.000000
z"/>
  <path fill="#AC914B" opacity="1.000000" stroke="none"
        d="
M568.766357,1098.963379
	C579.321045,1100.324463 584.478516,1105.674072 584.635132,1115.769409
	C584.849304,1129.575684 584.854492,1143.390503 584.631897,1157.196655
	C584.452393,1168.329956 578.011292,1174.251465 566.848083,1174.153931
	C556.054016,1174.059814 549.914124,1168.042725 549.786377,1157.021729
	C549.633972,1143.879395 549.692017,1130.733887 549.748291,1117.590088
	C549.803589,1104.679688 555.434570,1099.082031 568.766357,1098.963379
M565.803833,1109.842041
	C564.288818,1111.779785 561.515564,1113.682861 561.460815,1115.661133
	C561.074219,1129.623535 561.145325,1143.602661 561.309814,1157.573486
	C561.351746,1161.138916 563.474365,1163.570312 567.362427,1163.456177
	C571.285278,1163.341187 572.973877,1160.766357 572.996399,1157.177002
	C573.082153,1143.533203 573.090698,1129.888550 573.016174,1116.244629
	C572.994019,1112.176514 571.105896,1109.584961 565.803833,1109.842041
z"/>
  <path fill="#AC914B" opacity="1.000000" stroke="none"
        d="
M944.121948,1141.550537
	C940.073853,1141.057495 939.084900,1142.734619 939.157959,1146.137085
	C939.346619,1154.921387 939.221130,1163.712402 939.221130,1172.828857
	C935.317749,1172.828857 931.929688,1172.828857 928.223511,1172.828857
	C928.223511,1148.594116 928.223511,1124.545898 928.223511,1100.201904
	C931.839478,1100.201904 935.262817,1100.201904 939.131226,1100.201904
	C939.131226,1110.205688 939.131226,1120.141602 939.131226,1130.515747
	C943.586182,1130.515747 947.608032,1130.515747 952.344116,1130.515747
	C952.344116,1120.443237 952.344116,1110.387207 952.344116,1100.130493
	C956.483704,1100.130493 959.926392,1100.130493 963.725220,1100.130493
	C963.725220,1124.334229 963.725220,1148.381470 963.725220,1172.798584
	C960.111206,1172.798584 956.562927,1172.798584 952.401489,1172.798584
	C952.401489,1164.851196 952.437683,1157.060913 952.391846,1149.271240
	C952.341125,1140.661499 953.267517,1141.638550 944.121948,1141.550537
z"/>
  <path fill="#AC914B" opacity="1.000000" stroke="none"
        d="
M1215.738647,1160.961426
	C1218.387085,1161.868042 1221.537964,1163.580322 1223.027954,1162.645508
	C1224.916138,1161.460815 1226.383545,1158.140625 1226.425049,1155.713867
	C1226.709839,1139.069946 1226.574219,1122.418701 1226.573853,1105.769897
	C1226.573853,1103.971313 1226.573853,1102.172729 1226.573853,1100.142334
	C1230.401978,1100.142334 1233.687866,1100.142334 1237.356201,1100.142334
	C1237.505127,1101.472534 1237.768433,1102.737305 1237.770264,1104.002441
	C1237.795166,1121.483765 1237.867798,1138.965698 1237.752808,1156.446167
	C1237.673950,1168.433716 1231.157593,1174.519165 1219.202515,1174.130737
	C1209.770630,1173.824341 1203.456909,1168.505859 1203.250977,1159.087769
	C1202.825928,1139.639282 1203.123047,1120.175049 1203.123047,1100.313477
	C1206.902344,1100.313477 1210.438843,1100.313477 1214.604980,1100.313477
	C1214.604980,1102.184082 1214.605469,1103.972412 1214.604980,1105.760620
	C1214.600464,1121.410522 1214.553833,1137.060791 1214.632202,1152.710205
	C1214.645386,1155.338745 1215.199463,1157.964478 1215.738647,1160.961426
z"/>
  <path fill="#AC914B" opacity="1.000000" stroke="none"
        d="
M862.433167,1170.657959
	C858.394592,1166.872559 856.931519,1162.407349 856.929260,1157.362671
	C856.923096,1143.529785 856.842896,1129.696411 856.945862,1115.864380
	C857.023132,1105.486328 862.811707,1099.387085 872.671021,1098.955200
	C883.910706,1098.463135 890.421143,1103.770752 891.367432,1114.437012
	C891.658264,1117.714722 891.412598,1121.040039 891.412598,1124.649658
	C887.749451,1124.649658 884.493103,1124.649658 880.221436,1124.649658
	C880.221436,1121.797241 880.300720,1118.892578 880.201294,1115.994019
	C880.077637,1112.388306 878.530273,1109.806519 874.574463,1109.706543
	C870.688110,1109.608276 868.609558,1111.932373 868.572510,1115.598389
	C868.431396,1129.586060 868.409546,1143.576172 868.519165,1157.564087
	C868.547913,1161.237671 870.700073,1163.564697 874.540649,1163.461670
	C878.399536,1163.357910 880.160400,1160.910645 880.217590,1157.220581
	C880.286987,1152.745850 880.234070,1148.269043 880.234070,1143.566772
	C878.536377,1143.235596 877.124878,1142.960327 875.359619,1142.616089
	C875.359619,1139.589478 875.359619,1136.500610 875.359619,1132.927002
	C880.465881,1132.927002 885.644470,1132.927002 890.820557,1132.927002
	C890.820557,1142.799683 891.886902,1152.703613 890.547607,1162.270752
	C888.915588,1173.928345 874.401672,1177.974365 862.433167,1170.657959
z"/>
  <path fill="#AC914B" opacity="1.000000" stroke="none"
        d="
M1083.323730,1163.235352
	C1088.804565,1163.929810 1090.698730,1161.051880 1090.902466,1156.586792
	C1091.053223,1153.283569 1090.932007,1149.968018 1090.932007,1146.258301
	C1094.674194,1146.258301 1098.031616,1146.258301 1101.702515,1146.258301
	C1101.702515,1151.089600 1102.215088,1155.769531 1101.597046,1160.295166
	C1100.262695,1170.065308 1094.269531,1174.421265 1083.583252,1174.123657
	C1073.995605,1173.856689 1068.011353,1168.792358 1067.690063,1159.118408
	C1067.192627,1144.142700 1067.198730,1129.128174 1067.655273,1114.150513
	C1067.948242,1104.543579 1074.019775,1099.265747 1083.433716,1098.942261
	C1094.156616,1098.573975 1100.382080,1103.268311 1101.707153,1113.176392
	C1102.184448,1116.745728 1101.783813,1120.432617 1101.783813,1124.433838
	C1098.314453,1124.433838 1095.072876,1124.433838 1090.904175,1124.433838
	C1090.904175,1121.763794 1091.035767,1119.011108 1090.871948,1116.276367
	C1090.650513,1112.580688 1089.207153,1109.709106 1084.919800,1109.724854
	C1080.632690,1109.740601 1079.079590,1112.593140 1079.051880,1116.315430
	C1078.951782,1129.810181 1078.831543,1143.310059 1079.170898,1156.796753
	C1079.224731,1158.937866 1081.602905,1161.020508 1083.323730,1163.235352
z"/>
  <path fill="#AC914B" opacity="1.000000" stroke="none"
        d="
M438.141785,1116.253662
	C435.112946,1126.361450 431.704498,1135.971680 429.469635,1145.847534
	C428.099487,1151.902100 428.482727,1158.361572 428.170380,1164.643677
	C428.040222,1167.261353 428.148804,1169.890869 428.148804,1172.837158
	C424.258026,1172.837158 420.871460,1172.837158 416.425537,1172.837158
	C420.573517,1146.917969 407.713135,1124.493530 402.451263,1099.912109
	C405.422241,1099.912109 408.216797,1100.060913 410.987885,1099.869507
	C413.652069,1099.685547 414.783691,1100.724609 415.393311,1103.325806
	C417.101166,1110.613037 419.095581,1117.833374 420.992767,1125.075806
	C421.441895,1126.790405 421.953125,1128.488647 423.557892,1130.286621
	C424.339081,1127.569702 425.170441,1124.865967 425.889954,1122.132812
	C427.033783,1117.787842 428.064056,1113.412964 429.211517,1109.068970
	C431.804535,1099.252686 431.821777,1099.257202 442.730927,1100.274902
	C441.221497,1105.536255 439.739441,1110.702148 438.141785,1116.253662
z"/>
  <path fill="#AC914B" opacity="1.000000" stroke="none"
        d="
M624.160400,1110.421631
	C622.048889,1110.420654 620.400574,1110.420654 618.394287,1110.420654
	C618.394287,1106.814453 618.394287,1103.588379 618.394287,1100.015137
	C629.926453,1100.015137 641.486328,1100.015137 653.393799,1100.015137
	C653.393799,1103.397095 653.393799,1106.608521 653.393799,1110.004883
	C652.399597,1110.164673 651.603394,1110.371338 650.799194,1110.409912
	C641.637512,1110.847412 641.641479,1110.840576 641.641479,1119.807739
	C641.641541,1135.631958 641.635742,1151.456299 641.632507,1167.280518
	C641.632141,1169.071289 641.632446,1170.862061 641.632446,1172.902832
	C637.574402,1172.902832 634.147827,1172.902832 630.095215,1172.902832
	C630.095215,1152.152222 630.095215,1131.594971 630.095215,1110.707520
	C627.869019,1110.591553 626.246338,1110.506958 624.160400,1110.421631
z"/>
  <path fill="#AC914B" opacity="1.000000" stroke="none"
        d="
M1138.420654,1101.490479
	C1141.975708,1100.520264 1145.453247,1100.002319 1149.689453,1099.371216
	C1149.689453,1120.747192 1149.689453,1141.296143 1149.689453,1162.588013
	C1156.366821,1162.588013 1162.407104,1162.588013 1168.651367,1162.588013
	C1168.651367,1166.465210 1168.651367,1169.590942 1168.651367,1173.092529
	C1158.627075,1173.092529 1148.743652,1173.092529 1138.343140,1173.092529
	C1138.343140,1149.180908 1138.343140,1125.561646 1138.420654,1101.490479
z"/>
  <path fill="#AC914B" opacity="1.000000" stroke="none"
        d="
M1022.105164,1159.990234
	C1022.104736,1164.455200 1022.104736,1168.421997 1022.104736,1172.776611
	C1018.352661,1172.776611 1014.970520,1172.776611 1010.975830,1172.776611
	C1010.975830,1152.240723 1010.975830,1131.711548 1010.975830,1110.683228
	C1006.822876,1110.482544 1003.235229,1110.309326 999.178345,1110.113281
	C999.178345,1106.859131 999.178345,1103.668823 999.178345,1100.099609
	C1010.581055,1100.099609 1021.966919,1100.099609 1033.768799,1100.099609
	C1033.768799,1103.290771 1033.768799,1106.484497 1033.768799,1110.275635
	C1030.060791,1110.275635 1026.488403,1110.275635 1022.105591,1110.275635
	C1022.105591,1127.063110 1022.105591,1143.277466 1022.105164,1159.990234
z"/>
  <path fill="#AC914B" opacity="1.000000" stroke="none"
        d="
M808.863647,1109.041260
	C808.863403,1105.910034 808.863403,1103.272949 808.863403,1099.906982
	C810.999329,1099.906982 812.757690,1099.906982 814.515991,1099.906982
	C816.153625,1099.906982 817.791260,1099.906982 819.805359,1099.906982
	C819.805359,1124.324707 819.805359,1148.357300 819.805359,1172.779053
	C816.385803,1172.779053 812.999023,1172.779053 808.863892,1172.779053
	C808.863892,1151.680664 808.863892,1130.608032 808.863647,1109.041260
z"/>
  <path fill="#ECCA70" opacity="1.000000" stroke="none"
        d="
M353.411346,493.566772
	C356.160126,493.701843 357.541779,494.917267 355.518829,497.995300
	C354.616302,496.770966 354.023712,495.338348 353.411346,493.566772
z"/>
  <path fill="#E6C46C" opacity="1.000000" stroke="none"
        d="
M1140.364258,543.982056
	C1140.308228,543.205139 1140.511108,542.203430 1141.018066,541.166016
	C1141.089111,542.006042 1140.856079,542.881653 1140.364258,543.982056
z"/>
  <path fill="#01162B" opacity="1.000000" stroke="none"
        d="
M1286.184570,1160.486328
	C1286.160645,1153.749634 1286.160645,1147.461792 1286.160645,1141.275024
	C1295.270020,1138.870728 1298.755737,1141.418091 1298.921631,1150.345703
	C1298.967773,1152.829468 1299.060791,1155.379883 1298.585083,1157.791870
	C1297.550415,1163.038818 1290.472290,1164.755127 1286.184570,1160.486328
z"/>
  <path fill="#01162B" opacity="1.000000" stroke="none"
        d="
M1296.463745,1112.737793
	C1297.083740,1115.331177 1297.763550,1117.588867 1297.812012,1119.860107
	C1297.991089,1128.218994 1295.510742,1130.377319 1286.595459,1129.539917
	C1286.595459,1123.442017 1286.595459,1117.286011 1286.595459,1109.741821
	C1290.024780,1110.690552 1293.129395,1111.549438 1296.463745,1112.737793
z"/>
  <path fill="#01162B" opacity="1.000000" stroke="none"
        d="
M566.213013,1109.775391
	C571.105896,1109.584961 572.994019,1112.176514 573.016174,1116.244629
	C573.090698,1129.888550 573.082153,1143.533203 572.996399,1157.177002
	C572.973877,1160.766357 571.285278,1163.341187 567.362427,1163.456177
	C563.474365,1163.570312 561.351746,1161.138916 561.309814,1157.573486
	C561.145325,1143.602661 561.074219,1129.623535 561.460815,1115.661133
	C561.515564,1113.682861 564.288818,1111.779785 566.213013,1109.775391
z"/>
</svg>
